<?xml version="1.0" encoding="UTF-8"?>
<!DOCTYPE svg PUBLIC "-//W3C//DTD SVG 1.1//EN" "http://www.w3.org/Graphics/SVG/1.1/DTD/svg11.dtd">
<svg xmlns="http://www.w3.org/2000/svg" version="1.1" width="683px" height="683px" style="shape-rendering:geometricPrecision; text-rendering:geometricPrecision; image-rendering:optimizeQuality; fill-rule:evenodd; clip-rule:evenodd" xmlns:xlink="http://www.w3.org/1999/xlink">
<g><path fill="#323232" fill-opacity="0.996" stroke="#323232" stroke-width="0.5" stroke-opacity="0.996" d="M 450.07,179.97 c 0.3,-2.31 11.32,-12.26 13.64,-14.56 c 2.19,-0.85 2.89,2.15 4.9,-0.32 c 28.65,-28.67 57.29,-57.33 85.94,-85.99 c 0.97,-1.14 2.01,-1.22 3.11,-0.25 c 12.8,12.86 25.63,25.69 38.48,38.49 c 0.63,0.55 0.87,1.23 0.73,2.03 c -3.72,4.42 -9.38,10.7 -15.84,8.02 c -4.26,-2.34 -11.48,-7.9 -16.43,-7.27 c -7.13,6.83 -14.18,13.76 -21.14,20.79 c -1.9,2.68 1.75,6.66 3.45,8.59 c 19.75,10.88 35.87,25.61 50.05,43.04 c 3.12,3.85 20.68,27.12 20.13,30.46 c -6.09,6.42 -12.29,12.74 -18.59,18.97 c -0.7,0.81 -1.53,0.99 -2.49,0.54 c -22.61,-12.89 -42.15,-29.4 -58.62,-49.53 c -2.97,-3.91 -16.83,-28.8 -21.95,-24.02 c -7.28,7.36 -14.56,14.7 -21.86,22.04 c -2.1,2.38 2.15,2.61 0.39,4.53 c -4.41,4.6 -8.93,9.08 -13.55,13.45 c -0.9,0.12 -1.66,-0.16 -2.29,-0.83 c -9.38,-9.37 -18.74,-18.76 -28.06,-28.18 Z M 472.9,182.04 c 1.17,1.34 2.35,2.67 3.56,3.97 c 0.45,0.49 0.99,0.63 1.61,0.4 c 6.27,-5.18 28.79,-30.89 34.56,-32.17 c 23.38,-1.51 25.79,19.86 38.99,33.66 c 2.88,3.12 5.71,6.29 8.49,9.49 c 1.08,1.36 2.27,1.52 3.57,0.49 c 2.92,-2.94 5.85,-5.88 8.8,-8.8 c 0.49,-0.72 0.49,-1.44 -0.01,-2.15 c -12.1,-12.97 -28.28,-19.56 -39.16,-31.63 c -3.83,-5.83 -7.56,-14.27 -3.09,-20.73 c 5.75,-5.96 23.49,-24.14 28.56,-28.19 c 1.28,-0.38 5.33,-0.61 3.25,-2.94 c -1.66,-1.62 -3.32,-3.26 -4.95,-4.92 c -0.72,-0.49 -1.44,-0.49 -2.16,0 c -27.19,27.1 -54.29,54.3 -81.29,81.58 c -0.43,0.58 -0.67,1.22 -0.73,1.94 Z M 65.45,520 c 0.44,-2.78 6.52,-7.33 8.45,-9.62 c 2.46,-1.76 4.54,0.87 6.25,-0.46 c 11.02,-9.41 22.07,-18.78 33.15,-28.12 c 1.31,-1.56 0.09,-4.15 1.79,-5.25 c 59.17,-59.15 118.34,-118.3 177.5,-177.46 c 0.48,-0.73 0.5,-1.46 0.04,-2.21 c -4.15,-4.16 -8.32,-8.31 -12.5,-12.45 c -6.56,-1.94 -8.18,-0.28 -13.13,-5.85 c -1.07,-0.96 -2.78,-0.81 -2.83,0.9 c 0.24,1.22 2.02,2.07 0.9,3.34 c -1.22,1.54 -2.71,1.89 -4.47,1.03 c -4.69,-4.57 -9.33,-9.2 -13.91,-13.89 c -0.94,-2.19 -0.31,-3.77 1.9,-4.74 c 0.91,0.48 1.86,0.83 2.85,1.06 c 0.61,-0.09 1.05,-0.41 1.31,-0.97 c -0.99,-5.6 -1.41,-9.67 3.37,-13.69 c 38.72,-31.93 77.38,-63.94 115.98,-96.02 c 5.18,-5.23 6.42,-9.98 4.89,-17.11 c 1.43,-6.22 5.28,-9.98 11.56,-11.28 c 1.24,-0.42 2.33,-0.18 3.27,0.71 c 27.89,27.98 55.81,55.91 83.78,83.78 c 1.96,2.53 -2.25,4.35 -1.34,6.54 c 4.51,4.73 9.11,9.39 13.79,13.96 c 3.57,3.11 -5.97,5.86 -3.53,8.83 c 6.11,5.4 9.7,14.78 5.03,22.21 c -7.08,5.86 -25.22,28.55 -33.04,29.77 c -14.16,2.88 -21.69,-11.25 -30.83,-19.18 c -0.57,-0.6 -1.24,-0.79 -2.02,-0.55 c -27.05,26.84 -54.03,53.77 -80.94,80.77 c -58.13,63.27 -116.24,126.55 -174.34,189.83 c -0.34,0.46 -0.44,0.96 -0.3,1.51 c 1.5,1.45 2.88,3.02 4.13,4.71 c 3.4,7.75 6.67,15.55 9.82,23.4 c 0.13,1.24 -0.1,2.4 -0.71,3.48 c -3.41,3.86 -6.77,7.74 -10.09,11.66 c -0.79,3.06 10.86,5.85 6.69,9.82 c -4.23,3.66 -7.21,9.71 -13.55,5.72 c -32.73,-27.3 -65.41,-54.65 -98.04,-82.05 c -0.46,-0.64 -0.75,-1.35 -0.88,-2.13 Z M 289.37,263 c -0.28,7.76 11.75,15.12 16.21,20.84 c 1.66,1.57 2.75,-0.88 4.06,-1.66 c 2.04,-0.8 2.84,1.46 4.25,2.42 c 1.39,0.86 5.45,-2.97 4.36,-4.52 c -4.15,-4.72 -3.15,-10.97 1.17,-15.16 c 24.65,-24.67 49.32,-49.32 74.01,-73.95 c 4.68,-3.69 9.42,-3.76 14.21,-0.23 c 0.51,0.17 1,0.12 1.45,-0.17 c 2.84,-2.82 5.68,-5.64 8.51,-8.47 c 0.51,-0.74 0.55,-1.49 0.1,-2.26 c -12.72,-13.57 -23.24,-25.73 -40.69,-8.33 c -27.83,27.84 -55.66,55.67 -83.49,83.51 c -2.33,2.17 -3.72,4.83 -4.15,7.98 Z M 569.44,205.03 c 0.21,2.15 2.68,3.97 4.64,2.42 c 2.77,-2.74 5.52,-5.51 8.25,-8.3 c 0.28,-1.18 0,-2.25 -0.82,-3.21 c -2.39,-3.22 -9.73,7.81 -12.07,9.09 Z M 325.5,316.03 c -0.18,1.81 14.06,14.52 15.97,16.96 c 0.45,0.46 0.98,0.59 1.59,0.37 c 36.02,-35.9 71.98,-71.86 107.87,-107.89 c 1.73,-1.53 8.68,-9.21 6.45,-11.36 c -4.56,-4.75 -9.18,-9.45 -13.85,-14.1 c -0.45,-0.46 -0.98,-0.59 -1.59,-0.37 c -38.85,38.75 -77.67,77.55 -116.44,116.39 Z M 331.98,274.01 c 1.9,1.94 3.83,3.84 5.79,5.72 c 0.77,1.25 1.55,2.97 3.29,1.71 c 22.46,-22.46 44.92,-44.92 67.38,-67.38 c 0.49,-0.71 0.49,-1.41 0,-2.12 c -2.44,-2.45 -4.9,-4.89 -7.38,-7.3 c -0.61,-0.21 -1.13,-0.08 -1.59,0.37 c -22.36,22.27 -44.62,44.64 -66.78,67.1 c -0.41,0.57 -0.64,1.21 -0.71,1.9 Z M 580.44,214.03 c 0.04,1.63 1.99,3.7 3.63,2.45 c 2.21,-2.22 9.9,-7.74 5.32,-10.33 c -1.7,-0.49 -7.32,6.72 -8.95,7.88 Z M 591.43,222.95 c 4.55,4.62 9.57,-1.46 6.48,-5.36 c -1.55,-1.8 -6.48,4.15 -6.48,5.36 Z M 469.4,225.04 c 0.13,1.3 4.4,6.02 5.44,5.28 c 0.29,-2.47 -0.49,-4.55 -2.36,-6.26 c -1.47,-1.31 -2.5,-0.98 -3.08,0.98 Z M 446.01,250.99 c -0.46,-0.09 -0.82,0.07 -1.07,0.47 c -1.4,3.65 -8.83,9.83 -12.01,12.42 c -0.85,1.1 -4.11,2.91 -2.78,4.55 c 6.82,6.96 16.04,20.43 26.91,17.24 c 8.11,-7.38 18.58,-18.34 26.66,-26.38 c 5.26,-9.21 -12.41,-19.85 -17.16,-26.34 c -1.03,-0.96 -2.03,-0.9 -2.98,0.18 c -5.93,5.88 -11.79,11.83 -17.57,17.86 Z M 264.04,255 c 1.21,8.05 11.07,10.21 14.84,2.57 c 3.63,-11.42 -13.21,-15.29 -14.84,-2.57 Z M 379.95,323 c 0.18,-0.61 0.5,-1.15 0.95,-1.61 c 14.18,-14.15 28.35,-28.31 42.5,-42.49 c 0.54,-0.57 1.17,-0.7 1.88,-0.37 c 3.78,3.72 7.55,7.45 11.3,11.21 c 8.96,9.18 0.96,14.6 1.6,20.38 c 10.69,20.71 21.35,41.43 31.98,62.17 c 1.68,0.72 3.4,1.4 5.15,2.05 c 1.18,0.72 2.29,1.54 3.3,2.46 c 2.4,6.35 2.06,10.13 -3.29,14.94 c -6.56,4.06 -22.07,9.52 -29.86,13.08 c -7.88,1.69 -12.08,-2.41 -16.19,-8.48 c -10.91,-20.82 -21.83,-41.63 -32.76,-62.44 c -1.41,-2.98 -5.88,-1.81 -8.45,-2.64 c -2.88,-2.58 -5.59,-5.33 -8.11,-8.26 Z M 402.96,320 c 2.15,2.38 4.2,3.52 5.74,6.7 c 11.17,20.87 22.26,41.78 33.28,62.73 c 0.71,0.52 1.49,0.66 2.34,0.42 c 4.69,-2.01 9.4,-3.99 14.13,-5.93 c 0.7,-0.95 0.73,-1.93 0.08,-2.94 c -6.26,-14.95 -33.93,-60.97 -35.31,-73.39 c 0.57,-2.51 1.43,-4.92 2.59,-7.22 c -0.05,-1.77 -0.83,-2.23 -2.35,-1.38 c -6.98,6.87 -13.81,13.87 -20.5,21.01 Z M 125.96,538 c 3.87,4.63 9.74,8.03 14.02,12.42 c 1.01,0.78 2.02,0.77 3.01,-0.03 c 63.13,-68.5 126.14,-137.12 189.01,-205.85 c 0.67,-0.7 0.67,-1.39 -0.01,-2.07 c -8.71,-8.6 -17.31,-17.29 -25.79,-26.09 c -0.12,-0.54 0,-1.02 0.37,-1.44 c 2.86,-2.76 5.6,-5.61 8.24,-8.56 c 0.43,-1.86 -3.06,-3.75 -4.48,-4.22 c -0.78,-0.01 -1.42,0.29 -1.92,0.91 c -59.66,59.58 -119.23,119.25 -178.73,178.99 c -0.62,2.78 -1.78,29.42 1.04,32.85 c 2.52,2.73 5.09,5.4 7.71,8.03 c 0.37,0.42 0.49,0.9 0.37,1.44 c -4.29,4.52 -8.57,9.06 -12.84,13.62 Z M 301.58,350.89 c 0.17,-4.79 4.06,-6.74 8.32,-5.19 c 9.29,7.88 -6.67,15.62 -8.32,5.19 Z M 286.99,365 c 0.35,-3.52 4.4,-7.26 7.89,-5.28 c 1.71,1.34 3.01,2.99 3.92,4.95 c -0.37,2.82 -2.97,5.01 -5.47,6.13 c -1.61,-0.44 -3.14,-1.13 -4.58,-2.04 c -0.91,-1.1 -1.49,-2.35 -1.76,-3.76 Z M 264.96,444 c 0.25,-0.57 0.58,-1.09 1.01,-1.55 c 16.21,-17.4 32.51,-34.72 48.91,-51.93 c 0.38,-0.18 0.76,-0.18 1.15,-0.02 c 42.32,33.69 98.97,42.22 151.58,37.28 c 3.93,-0.61 7.87,-1.14 11.8,-1.59 c 1.08,0.29 0.98,2.54 1.38,3.33 c 4.45,20.62 8.83,41.25 13.12,61.88 c -0.46,1.32 -4.09,1.28 -5.19,1.84 c -1.26,1.29 0.51,3.71 -2.01,4.04 c -58.96,12.2 -128.49,1.81 -181.71,-26.79 c -6.78,-3.64 -37.14,-21.11 -40.04,-26.49 Z M 285.96,441.99 c 0.1,0.37 0.3,0.67 0.61,0.91 c 48.95,32.68 102.26,46.62 160.82,44.99 c 7.79,-1.06 16.26,-1.03 23.99,-2.16 c 1.88,-0.14 1.33,-2.85 1.77,-4.09 c 1.33,-1.46 4.83,0.53 3.73,-2.97 c -2.63,-10.91 -5.01,-21.88 -7.14,-32.91 c -0.72,-1.9 -0.24,-4.39 -3.19,-3.77 c -1.71,0.37 -3.44,0.66 -5.18,0.85 c -50.95,2.27 -100.95,-4.14 -143.98,-33.69 c -0.53,-0.17 -0.98,-0.03 -1.34,0.4 c -5.05,8.77 -22.39,24.27 -30.09,32.44 Z M 163,491 c 0.81,-7.09 17.03,-12.35 21.89,-17.65 c 15.75,-12.89 31.49,-25.79 47.23,-38.69 c 1.37,-0.79 3.33,-2.66 4.76,-1.02 c 0.26,1.13 -0.04,2.1 -0.89,2.89 c -20.27,20.02 -40.3,40.26 -60.09,60.73 c -5.55,3.94 -13.15,0.54 -12.9,-6.26 Z M 98.03,511 c 0.14,5.53 11.38,13.15 15.66,16.68 c 1.97,1.34 3.52,-1.59 4.83,-2.63 c 1.41,-1.94 -1.48,-3.22 -2.43,-4.59 c -1.79,-2.17 -0.83,-21.15 -1.52,-25.23 c 0.04,-0.86 -0.47,-2.55 -1.62,-1.59 c -4.08,3.92 -14.5,11.88 -14.92,17.36 Z"/></g>
<g><path fill="#7d7d7d" stroke="#7d7d7d" stroke-width="0.5" d="M 264.04,255 c 1.63,-12.72 18.47,-8.85 14.84,2.57 c -3.77,7.64 -13.63,5.48 -14.84,-2.57 Z"/></g>
<g><path fill="#ff6e4d" stroke="#ff6e4d" stroke-width="0.5" d="M 331.98,274.01 c 0.07,-0.69 0.3,-1.33 0.71,-1.9 c 22.16,-22.46 44.42,-44.83 66.78,-67.1 c 0.46,-0.45 0.98,-0.58 1.59,-0.37 c 2.48,2.41 4.94,4.85 7.38,7.3 c 0.49,0.71 0.49,1.41 0,2.12 c -22.46,22.46 -44.92,44.92 -67.38,67.38 c -1.74,1.26 -2.52,-0.46 -3.29,-1.71 c -1.96,-1.88 -3.89,-3.78 -5.79,-5.72 Z"/></g>
<g><path fill="#5c666f" stroke="#5c666f" stroke-width="0.5" d="M 325.5,316.03 c 38.77,-38.84 77.59,-77.64 116.44,-116.39 c 0.61,-0.22 1.14,-0.09 1.59,0.37 c 4.67,4.65 9.29,9.35 13.85,14.1 c 2.23,2.15 -4.72,9.83 -6.45,11.36 c -35.89,36.03 -71.85,71.99 -107.87,107.89 c -0.61,0.22 -1.14,0.09 -1.59,-0.37 c -1.91,-2.44 -16.15,-15.15 -15.97,-16.96 Z M 125.96,538 c 4.27,-4.56 8.55,-9.1 12.84,-13.62 c 0.12,-0.54 0,-1.02 -0.37,-1.44 c -2.62,-2.63 -5.19,-5.3 -7.71,-8.03 c -2.82,-3.43 -1.66,-30.07 -1.04,-32.85 c 59.5,-59.74 119.07,-119.41 178.73,-178.99 c 0.5,-0.62 1.14,-0.92 1.92,-0.91 c 1.42,0.47 4.91,2.36 4.48,4.22 c -2.64,2.95 -5.38,5.8 -8.24,8.56 c -0.37,0.42 -0.49,0.9 -0.37,1.44 c 8.48,8.8 17.08,17.49 25.79,26.09 c 0.68,0.68 0.68,1.37 0.01,2.07 c -62.87,68.73 -125.88,137.35 -189.01,205.85 c -0.99,0.8 -2,0.81 -3.01,0.03 c -4.28,-4.39 -10.15,-7.79 -14.02,-12.42 Z M 301.58,350.89 c 1.65,10.43 17.61,2.69 8.32,-5.19 c -4.26,-1.55 -8.15,0.4 -8.32,5.19 Z M 286.99,365 c 0.27,1.41 0.85,2.66 1.76,3.76 c 1.44,0.91 2.97,1.6 4.58,2.04 c 2.5,-1.12 5.1,-3.31 5.47,-6.13 c -0.91,-1.96 -2.21,-3.61 -3.92,-4.95 c -3.49,-1.98 -7.54,1.76 -7.89,5.28 Z M 163,491 c -0.25,6.8 7.35,10.2 12.9,6.26 c 19.79,-20.47 39.82,-40.71 60.09,-60.73 c 0.85,-0.79 1.15,-1.76 0.89,-2.89 c -1.43,-1.64 -3.39,0.23 -4.76,1.02 c -15.74,12.9 -31.48,25.8 -47.23,38.69 c -4.86,5.3 -21.08,10.56 -21.89,17.65 Z"/></g>
<g><path fill="#444444" stroke="#444444" stroke-width="0.5" d="M 285.96,441.99 c 7.7,-8.17 25.04,-23.67 30.09,-32.44 c 0.36,-0.43 0.81,-0.57 1.34,-0.4 c 43.03,29.55 93.03,35.96 143.98,33.69 c 1.74,-0.19 3.47,-0.48 5.18,-0.85 c 2.95,-0.62 2.47,1.87 3.19,3.77 c 2.13,11.03 4.51,22 7.14,32.91 c 1.1,3.5 -2.4,1.51 -3.73,2.97 c -0.44,1.24 0.11,3.95 -1.77,4.09 c -7.73,1.13 -16.2,1.1 -23.99,2.16 c -58.56,1.63 -111.87,-12.31 -160.82,-44.99 c -0.31,-0.24 -0.51,-0.54 -0.61,-0.91 Z"/></g>
<g><path fill="#323232" fill-opacity="0.976" stroke="#323232" stroke-width="0.5" stroke-opacity="0.976" d="M 446.01,250.99 c 0.6,6.7 8.22,14.74 15.49,14.58 c 2.93,-0.16 5.83,-0.55 8.69,-1.16 c 2.05,2.03 -2.48,3.75 -3.85,4.32 c -7.39,2.27 -14.66,-1.07 -20.92,-4.73 c -2.53,0.84 -11.1,-0.2 -12.49,-0.12 c 3.18,-2.59 10.61,-8.77 12.01,-12.42 c 0.25,-0.4 0.61,-0.56 1.07,-0.47 Z M 249.72,327.98 c -0.33,-1.81 12.88,-12.86 14.24,-15.53 c 2.2,-7.47 4.48,-14.9 6.84,-22.3 c 1.49,-0.69 3.07,-1.1 4.71,-1.25 c 2.78,-0.4 8.46,7.45 10.82,9.15 c 0.48,0.63 0.54,1.3 0.19,2.01 c -10.48,10.49 -20.97,20.99 -31.46,31.48 c -2.01,1.4 -4.16,-2.35 -5.34,-3.56 Z M 246.25,464.01 c 3.92,-4.45 7.86,-8.87 11.83,-13.27 c 0.66,-0.6 1.39,-0.7 2.19,-0.3 c 10.82,10.79 20.49,19.36 27.45,33.24 c 0.65,1.74 -1.32,4.46 -2.14,5.92 c -2.56,-3.61 -5.07,-7.26 -7.53,-10.94 c -2.91,-0.37 -9.01,7.76 -11.55,6.28 c -2.65,-2.87 -19.83,-18.96 -20.25,-20.93 Z"/></g>
<g><path fill="#6b4949" stroke="#6b4949" stroke-width="0.5" d="M 402.96,320 c 6.69,-7.14 13.52,-14.14 20.5,-21.01 c 1.52,-0.85 2.3,-0.39 2.35,1.38 c -1.16,2.3 -2.02,4.71 -2.59,7.22 c 1.38,12.42 29.05,58.44 35.31,73.39 c 0.65,1.01 0.62,1.99 -0.08,2.94 c -4.73,1.94 -9.44,3.92 -14.13,5.93 c -0.85,0.24 -1.63,0.1 -2.34,-0.42 c -11.02,-20.95 -22.11,-41.86 -33.28,-62.73 c -1.54,-3.18 -3.59,-4.32 -5.74,-6.7 Z"/></g>
<g><path fill="#3f3f3e" stroke="#3f3f3e" stroke-width="0.5" d="M 472.9,182.04 c 0.06,-0.72 0.3,-1.36 0.73,-1.94 c 27,-27.28 54.1,-54.48 81.29,-81.58 c 0.72,-0.49 1.44,-0.49 2.16,0 c 1.63,1.66 3.29,3.3 4.95,4.92 c 2.08,2.33 -1.97,2.56 -3.25,2.94 c -5.07,4.05 -22.81,22.23 -28.56,28.19 c -4.47,6.46 -0.74,14.9 3.09,20.73 c 10.88,12.07 27.06,18.66 39.16,31.63 c 0.5,0.71 0.5,1.43 0.01,2.15 c -2.95,2.92 -5.88,5.86 -8.8,8.8 c -1.3,1.03 -2.49,0.87 -3.57,-0.49 c -2.78,-3.2 -5.61,-6.37 -8.49,-9.49 c -13.2,-13.8 -15.61,-35.17 -38.99,-33.66 c -5.77,1.28 -28.29,26.99 -34.56,32.17 c -0.62,0.23 -1.16,0.09 -1.61,-0.4 c -1.21,-1.3 -2.39,-2.63 -3.56,-3.97 Z M 569.44,205.03 c 2.34,-1.28 9.68,-12.31 12.07,-9.09 c 0.82,0.96 1.1,2.03 0.82,3.21 c -2.73,2.79 -5.48,5.56 -8.25,8.3 c -1.96,1.55 -4.43,-0.27 -4.64,-2.42 Z M 580.44,214.03 c 1.63,-1.16 7.25,-8.37 8.95,-7.88 c 4.58,2.59 -3.11,8.11 -5.32,10.33 c -1.64,1.25 -3.59,-0.82 -3.63,-2.45 Z M 591.43,222.95 c 0,-1.21 4.93,-7.16 6.48,-5.36 c 3.09,3.9 -1.93,9.98 -6.48,5.36 Z"/></g>
</svg>
