<?xml version="1.0" encoding="UTF-8"?>
<!DOCTYPE svg PUBLIC "-//W3C//DTD SVG 1.1//EN" "http://www.w3.org/Graphics/SVG/1.1/DTD/svg11.dtd">
<svg xmlns="http://www.w3.org/2000/svg" version="1.1" width="683px" height="683px" style="shape-rendering:geometricPrecision; text-rendering:geometricPrecision; image-rendering:optimizeQuality; fill-rule:evenodd; clip-rule:evenodd" xmlns:xlink="http://www.w3.org/1999/xlink">
<g><path fill="#323232" fill-opacity="0.996" stroke="#323232" stroke-width="0.5" stroke-opacity="0.996" d="M 508.86,184.22 c -3.97,-4.54 -8.05,-8.98 -12.25,-13.33 c -5,-5.05 -10.01,-10.09 -15.03,-15.1 c -0.68,-0.67 -0.82,-1.42 -0.43,-2.23 c 2.43,-2.58 5.75,-2.83 7.97,-5.76 c 1.26,-1.2 2.57,0.16 3.34,1.18 c 2.52,2.8 -4.65,2.24 -2,6.1 c 1.06,0.75 3.21,4.31 4.65,2.51 c 0.3,-0.77 0.76,-1.39 1.36,-1.86 c 1.16,0.42 2.91,1.99 2.09,3.36 c -2.52,1.62 -2.41,5.48 0.8,3.79 c 1.53,-1.46 3.05,-2.94 4.56,-4.42 c 1.7,-1.05 1.95,2.07 4.3,1.29 c 10.72,-10.62 21.42,-21.28 32.09,-31.96 c 1.73,-1.66 -1.63,-2.72 -0.29,-4.31 c 2.32,-2.23 4.5,-4.57 6.54,-7.02 c 0.26,-1.9 -4.36,-3.39 -3.17,-5.57 c 1.33,-1.34 2.66,-2.67 3.99,-4 c 2.29,-1.87 3.63,3.48 5.99,2.9 c 1.69,-1.57 3.45,-3.06 5.28,-4.47 c 1.56,-0.66 3.4,0.7 4.62,-0.51 c 10,-10.01 20.01,-20.01 30.03,-30 c 2.02,-1.88 -0.43,-4.6 1.67,-6.36 c 14.17,-14.15 28.33,-28.29 42.51,-42.43 c 1.27,-0.53 2.44,-0.3 3.5,0.67 c 2.99,1.84 14.19,11.04 12.02,14.85 c -14.14,14.17 -28.28,28.34 -42.43,42.51 c -1.7,2.09 -4.5,-0.36 -6.34,1.69 c -9.98,10.01 -19.98,20.01 -29.98,29.99 c -1.1,1.65 -1.46,3.44 -1.09,5.39 c 2.3,2.75 4.79,5.33 7.46,7.73 c 4.81,3.58 6.89,-4.61 9.75,-3.72 c 4.14,3.86 8.19,7.82 12.16,11.88 c 0.56,0.53 0.75,1.17 0.56,1.9 c -56.51,58.01 -113.03,116.02 -169.56,174.03 c -1.64,1.99 -1.59,3.95 0.16,5.88 c 3.05,2.79 3.21,4.55 7.84,4.04 c 2.76,0.14 -0.45,5.8 -1.5,6.66 c -2.35,1.79 -4.94,6.82 -8.44,5.36 c -6.94,-6.69 -13.81,-13.47 -20.6,-20.33 c -0.61,-0.7 -0.61,-1.4 -0.01,-2.1 c 49.49,-49.41 98.9,-98.88 148.25,-148.42 c 1.15,-2.54 -4.92,-8.19 -3.15,-10.51 c 1.13,-1.15 2.25,-2.31 3.36,-3.48 c 2.35,-5.55 -2.85,-7.49 -5.8,-11.15 c -0.52,-0.53 -1.13,-0.72 -1.84,-0.55 c -10.22,10.09 -20.43,20.22 -30.6,30.37 c -2.3,3.1 -2.43,2.28 -0.62,5.65 c -0.29,1.05 -0.43,2.13 -0.42,3.22 c -0.77,3.82 -7.07,4.15 -9.49,7.22 c -0.67,0.1 -1.28,-0.09 -1.81,-0.58 Z M 630.09,47.97 c 0.07,2.3 3.75,1.38 4.8,0.2 c 1.71,-2.54 10.24,-7.79 7.54,-11.2 c -3.5,-1.57 -12.22,8.34 -12.34,11 Z M 466.81,151.22 c 0.17,0.65 0.07,1.26 -0.3,1.83 c -6.15,6.17 -12.32,12.32 -18.5,18.46 c -0.52,0.52 -0.83,1.14 -0.94,1.86 c -2.24,-1.5 -14.53,-35.87 -16.58,-41.17 c -4.83,-5.54 -9.83,-10.92 -15.02,-16.14 c -0.37,-0.71 -0.32,-1.39 0.15,-2.03 c 4.06,-4.14 8.19,-8.18 12.39,-12.15 c 0.32,-0.14 0.63,-0.15 0.96,-0.03 c 8.11,8.05 16.2,16.13 24.24,24.26 c 5.06,8.85 5.03,18.53 13.6,25.11 Z M 442.9,146 c 2.06,12.22 18.73,1.2 8.04,-5.37 c -4.53,-1.02 -7.21,0.77 -8.04,5.37 Z M 480,157.08 c 9.97,8.89 19.14,18.53 27.5,28.94 c 4.54,6.41 9.92,13.76 4.12,21.27 c -34.56,34.72 -69.2,69.36 -103.92,103.93 c -9.22,8.31 7.3,23.43 10.05,31.32 c 2.33,13.51 -17.94,24.86 -25.33,34.39 c -4.42,4.58 -23.04,7.98 -16.02,17.22 c 9.94,14.73 19.82,29.51 29.62,44.33 c 4.15,6.12 16.01,4.73 14.26,14.72 c -2.13,8.87 -23.51,19.62 -30.41,26.2 c -4.02,2.46 -9.4,-0.23 -15.83,3.88 c -0.3,0.22 -0.59,0.2 -0.86,-0.04 c -11.12,-20.9 -22.18,-41.83 -33.19,-62.79 c -2.43,-5.13 -12.54,-10.48 -16.99,-5.96 c -18.71,18.63 -37.34,37.33 -55.88,56.1 c -0.95,2.76 -0.18,4.91 2.31,6.44 c 39.5,24.33 75.35,54.37 109.82,85.31 c 4.21,4.02 8.32,8.14 12.34,12.33 c 0.14,0.71 -0.04,1.32 -0.55,1.85 c -15.54,18.8 -31.07,37.61 -46.61,56.42 c -4.34,6.6 -26.58,-2.51 -32.41,-5.5 c -33.72,-16.94 -72.24,-45.45 -91.33,-78.52 c -1.15,-2.47 -6.79,-16 -10.68,-12.28 c -1.47,1.24 -3.85,4.55 -5.68,4.93 c -2.87,0.49 -11.53,-0.5 -13.62,0.63 c -10.38,10.28 -20.73,20.61 -31.04,30.98 c -8.18,14.02 -5.08,32.84 1.47,46.94 c 0.26,0.61 0.33,1.24 0.22,1.89 c -7.07,7.24 -31.44,35.13 -39.86,35.75 c -5.38,0.26 -13.48,-2.09 -18.05,-4.75 c -24.16,-24.16 -48.33,-48.32 -72.49,-72.48 c -0.61,-0.53 -1.07,-1.16 -1.37,-1.9 c 14.68,-15.06 29.52,-29.99 44.53,-44.79 c 4.32,-1.96 16.28,-3.51 19.49,-5.75 c 36.5,-36.49 72.97,-73 109.41,-109.53 c 1.51,-2.07 0.97,-5.82 -0.05,-8.03 c -8.03,-14.32 -15.9,-28.73 -23.6,-43.22 c -1.18,-4.95 0.21,-9.04 4.17,-12.27 c 44.67,-38.98 89.34,-77.95 134.02,-116.91 c 3.78,-2.79 8,-3.94 12.67,-3.45 c 14.61,3.52 29.17,7.2 43.7,11.06 c 0.75,0.2 1.47,0.14 2.16,-0.19 c 24.08,-23.93 48.03,-47.98 71.85,-72.15 c 6.49,-6.15 12.87,-12.41 19.16,-18.79 c 0.55,-0.54 1.01,-1.15 1.37,-1.84 c 1.44,-0.28 2.43,-2.96 3.87,-2.39 c 2.63,2.13 5.19,4.37 7.66,6.7 Z M 243.95,401 c 7.66,8.13 15.48,16.12 23.45,23.95 c 0.35,0.39 0.49,0.85 0.43,1.37 c -0.84,2.8 -4.66,14.55 -3.14,16.6 c 1.6,1.69 3.19,3.38 4.78,5.08 c 0.69,0.71 1.38,0.71 2.07,0.01 c 13.34,-13.28 26.61,-26.63 39.79,-40.07 c 1.84,-7.14 1.37,-14.75 3.39,-21.86 c 9.67,-9.9 19.41,-19.72 29.24,-29.45 c 2.57,-2.41 5.17,5.91 8.1,3.85 c 10.9,-13.54 22.11,-30.18 32.73,-44.32 c 8.16,-8.44 16.41,-16.79 24.73,-25.06 c 0.47,-0.74 0.45,-1.46 -0.06,-2.17 c -2.78,-2.78 -23.31,-20.74 -21.47,-23.4 c 2.96,-1.89 20.6,17.58 23.94,20.93 c 1.56,1.28 4.05,-0.71 3.47,-2.52 c -6.97,-6.96 -13.87,-13.98 -20.7,-21.07 c -0.83,-0.91 -1.3,-1.95 -1.42,-3.15 c 0.85,-0.78 1.76,-0.84 2.75,-0.17 c 7.14,7.15 14.28,14.3 21.41,21.46 c 1.65,1.71 4.68,-1.87 3.96,-3.07 c -3.75,-3.75 -20.62,-19.34 -21.77,-22.92 c 0.31,-7.15 20.8,18.5 23.81,19.99 c 1.7,1.76 4.4,-1.54 3.05,-3.09 c -2.85,-3.2 -20.92,-20.1 -21.39,-22.45 c 0.08,-1.76 0.89,-2.25 2.42,-1.45 c 7.12,7.16 14.26,14.3 21.41,21.44 c 1.83,1.48 5.09,-1.91 3.53,-3.53 c -2.51,-3 -21.5,-20.46 -21.41,-22.44 c 0.12,-1.71 0.94,-2.2 2.46,-1.45 c 7.14,7.14 14.28,14.28 21.42,21.42 c 1.86,1.52 5.03,-1.99 3.53,-3.53 c -2.51,-3 -21.5,-20.46 -21.41,-22.44 c 0.12,-1.71 0.94,-2.2 2.46,-1.45 c 7.14,7.14 14.28,14.28 21.42,21.42 c 1.57,1.28 3.97,-0.78 3.52,-2.54 c -2.6,-3.86 -23.42,-21.18 -21.47,-24.4 c 3.12,-2.2 19.64,18.08 23.33,20.6 c 1.75,2.33 4.92,-0.85 4.08,-2.18 c -6.97,-6.96 -13.86,-13.98 -20.69,-21.07 c -0.83,-0.91 -1.3,-1.95 -1.42,-3.15 c 0.85,-0.78 1.76,-0.84 2.75,-0.17 c 2.81,2.82 21.56,22.33 23.06,21.9 c 1.52,-0.85 2.11,-2.1 1.77,-3.74 c -3.72,-4.53 -19.19,-19.07 -21.52,-22.37 c 0.02,-1.89 0.91,-2.47 2.66,-1.75 c 2.84,2.83 21.61,22.33 23.1,21.89 c 1.04,-0.81 2.58,-2.17 1.36,-3.55 c -2.51,-2.99 -21.5,-20.47 -21.41,-22.43 c 0.11,-1.78 0.94,-2.27 2.47,-1.48 c 7.12,7.16 14.26,14.3 21.41,21.44 c 1.47,1.4 4.34,-1.23 3.53,-2.54 c -2.72,-3.62 -22.51,-20.91 -21.8,-23.97 c 3.19,-3.55 19.73,17.71 23.65,20.17 c 1.77,2.34 4.98,-0.83 4.09,-2.18 c -6.97,-6.96 -13.87,-13.98 -20.7,-21.07 c -0.83,-0.91 -1.3,-1.95 -1.42,-3.15 c 0.85,-0.78 1.76,-0.84 2.75,-0.17 c 7.14,7.15 14.28,14.3 21.41,21.46 c 1.66,1.72 4.63,-1.87 3.95,-3.07 c -4.13,-4.48 -19.39,-19.03 -22.02,-22.6 c 0,-1.89 0.88,-2.48 2.64,-1.77 c 7.16,7.12 14.31,14.27 21.43,21.44 c 2.02,1.69 4.36,-1.56 3.02,-3.08 c -2.6,-3.55 -22.46,-20.39 -21.26,-23.32 c 0.53,-1.13 1.3,-1.33 2.32,-0.59 c 7.12,7.16 14.26,14.3 21.41,21.44 c 1.58,1.51 5.06,-1.62 3.52,-3.53 c -2.41,-3.06 -22.41,-21.1 -21.74,-22.97 c 1,-1.06 2.12,-1.17 3.35,-0.35 c 7.1,7.18 14.28,14.26 21.55,21.23 c 1.64,0.61 4.95,-4.29 6.34,-5.15 c 1.76,-1.31 -0.69,-3.65 -1.22,-5.02 c -6.61,-9.14 -14.69,-17.17 -22.66,-25.13 c -0.71,-0.49 -1.43,-0.49 -2.14,0 c -72.65,72.65 -145.3,145.29 -217.94,217.95 c -4.14,4.05 -8.15,8.22 -12.04,12.51 Z M 219.3,356.9 c 1.52,3.53 17.94,18.48 21.65,22.55 c 1.75,1.17 3.56,1.29 5.43,0.35 c 28.07,-27.87 56.08,-55.8 84.02,-83.81 c 0.44,-0.66 0.46,-1.33 0.07,-2.01 c -4.16,-4.17 -12.9,-12.32 -7.82,-18.97 c 3.85,-3.96 7.81,-7.8 11.87,-11.51 c 0.39,-0.06 0.65,0.1 0.77,0.49 c 0.82,5.16 8.33,15.04 14.09,12.84 c 3.93,-3.69 7.73,-7.51 11.41,-11.46 c 3.08,-11.93 -22.62,-10.87 -29.27,-13.39 c -2.81,-0.55 -5.52,-0.25 -8.11,0.9 c -34.22,33.45 -68.38,66.97 -102.49,100.55 c -0.91,0.98 -1.45,2.14 -1.62,3.47 Z M 330.36,285.1 c 0.19,4.98 3.52,5.32 7.69,4.36 c 6.6,-7.35 -6.23,-12.53 -7.69,-4.36 Z M 361.73,369.99 c 0.43,3.41 7.99,11.15 11.58,10.65 c 5.04,-2.13 10,-4.46 14.85,-6.97 c 7.65,-7.42 15.18,-14.96 22.6,-22.62 c 5.48,-9.07 -4.62,-16.23 -9.03,-23.24 c -1.97,-1.59 -6.58,-2.62 -8.73,-1.27 c -5.14,6.89 -10.12,13.88 -14.93,20.97 c -0.1,5.25 4.44,9.71 9.42,10.55 c 1.86,1.19 12.15,-1.65 11.54,1.4 c -2.54,8.15 -21.54,2.37 -26.08,-2.79 c -0.87,-0.56 -1.61,-0.43 -2.22,0.4 c -3.14,4.22 -6.14,8.52 -9,12.92 Z M 56.98,568.99 c 0.28,3.19 24.45,25.98 28.43,29.94 c 0.74,1 1.62,1.17 2.65,0.51 c 57.13,-57.12 114.26,-114.25 171.38,-171.38 c 0.49,-0.71 0.49,-1.41 0,-2.12 c -19.93,-20.09 -40.23,-39.59 -59.27,-60.51 c -0.81,-1.57 -1.51,-3.18 -2.1,-4.82 c -0.38,-0.14 -0.75,-0.12 -1.12,0.04 c -0.97,1.11 -5.14,2.59 -4.3,4.45 c 7.71,14.21 15.38,28.43 23.01,42.67 c 1.72,6.58 1.36,10.93 -1.39,17.14 c -38.09,38.49 -76.37,76.79 -114.83,114.91 c -1.62,1.54 -12.85,3.52 -15.68,4.49 c -6.74,1.92 -21.39,18.87 -26.78,24.68 Z M 324.19,400.81 c 10.52,0.22 17.94,3.7 24.52,11.88 c 2.03,3.3 3.98,6.6 5.87,9.92 c 3.75,-4.04 7.55,-8.06 11.4,-12.07 c 1.67,-0.68 2.16,-0.19 1.48,1.48 c -1.43,2.19 -11.55,11.91 -11.46,13.48 c 0.83,7.87 11.19,-8.68 12.99,-9.98 c 1.93,-1.47 2.55,1.08 1.46,2.51 c -0.77,1.41 -17.91,16.57 -9.07,15.8 c 3.68,-3.98 7.26,-8.05 10.76,-12.21 c 0.79,-1.25 3.32,0.06 1.85,1.91 c -3.89,4.07 -7.71,8.2 -11.45,12.4 c -1.12,1.29 0.91,5.91 2.98,3.06 c 3.16,-3.82 6.36,-7.6 9.59,-11.36 c 1.93,-1.7 4.01,-1.62 2.34,1.4 c -4.07,4.21 -8.04,8.51 -11.91,12.9 c -1.02,1.09 0.54,5.23 2.49,3.56 c 3.66,-4.32 7.31,-8.65 10.96,-12.97 c 1.96,-1.46 2.54,1.09 1.46,2.51 c -4.08,4.21 -8.05,8.51 -11.91,12.9 c -1.01,1.49 0.86,5.43 2.35,3.48 c 4.03,-4.62 8.06,-9.24 12.09,-13.87 c 0.66,-0.51 1.28,-0.48 1.84,0.09 c -0.17,1.22 -0.67,2.3 -1.51,3.24 c -1.75,3.03 -13.69,12.34 -11.22,15.53 c 2.24,2.33 11.37,-11.41 13.89,-12.86 c 1.67,-0.68 2.16,-0.19 1.48,1.48 c -2.47,2.81 -14.46,14.35 -12.37,17.38 c 2.23,2.31 11.98,-11.79 14.35,-13.42 c 0.41,-0.54 0.88,-0.64 1.4,-0.29 c 0.2,0.83 0.07,1.62 -0.39,2.34 c -1.48,1.7 -17.12,17.18 -11.1,16.8 c 0.91,-0.37 1.75,-0.87 2.52,-1.49 c 3.8,-4.17 7.73,-8.22 11.77,-12.15 c 1.32,0.06 1.6,0.67 0.82,1.83 c -3.14,3.77 -6.44,7.41 -9.88,10.92 c -0.29,0.73 -0.04,1.05 0.74,0.96 c 6.64,-4.27 13.03,-8.89 19.17,-13.87 c 0.52,-0.67 0.49,-1.31 -0.07,-1.92 c -2.81,-1.42 -5.19,-3.35 -7.15,-5.8 c -14.83,-22.22 -29.67,-44.43 -44.51,-66.64 c -2.15,-2.43 -4.38,-4.78 -6.7,-7.05 c -0.61,-0.22 -1.14,-0.09 -1.6,0.38 c -6.34,6.28 -12.6,12.63 -18.79,19.06 c -0.44,2.92 -0.93,5.83 -1.48,8.75 Z M 272.03,421 c 5.6,-16.87 26.85,-3.14 12.83,8.25 c -5.3,3.02 -12.66,-2.17 -12.83,-8.25 Z M 276.94,420.98 c 0.55,4.52 2.37,4.45 6.42,3.89 c 5.04,-5.01 -3.45,-10.46 -6.42,-3.89 Z M 176.99,468.99 c 13.1,-13.99 26.9,-27.39 40.59,-40.8 c 1.15,-0.82 3.02,-2.83 4.47,-1.62 c 4.37,4.28 8.61,8.66 12.74,13.16 c 0.28,0.8 0.13,1.52 -0.44,2.16 c -13.36,13.67 -27.94,30.35 -42.67,42.19 c -0.58,0.36 -1.19,0.42 -1.82,0.18 c -2.57,-3.18 -13.24,-11.39 -12.87,-15.27 Z M 108.99,621 c 0.29,2.88 13.16,14.69 15.95,17.44 c 0.42,0.37 0.9,0.49 1.45,0.37 c 6.74,-6.41 13.37,-12.96 19.88,-19.64 c 0.56,-1.05 -1.76,-6.53 -1.98,-7.96 c -10.86,-42.73 15.29,-54.68 40.78,-81.51 c 1.7,-1.09 11.54,-0.44 14.19,-1.04 c 3.9,-3.37 7.64,-6.91 11.22,-10.64 c 0.68,-0.67 1.36,-0.67 2.04,0 c 5.47,5.48 10.94,10.95 16.42,16.42 c 2.32,2.05 4.04,-3.79 6.11,-2.79 c 2.66,2.57 5.29,5.16 7.89,7.79 c 0.42,0.37 0.9,0.49 1.45,0.37 c 7.5,-7.11 14.82,-14.42 21.97,-21.92 c 2.73,-3.06 -6.54,-7.37 -6.21,-10.21 c 1.43,-3.98 2.76,-8 3.98,-12.05 c 0.88,-0.57 1.86,-0.96 2.92,-1.14 c 0.43,-0.45 0.53,-0.96 0.3,-1.54 c -2.21,-2.26 -12.97,-12.32 -13.16,-14.56 c -0.09,-4.22 -0.04,-8.44 0.16,-12.65 c 3.75,-4.18 7.57,-8.3 11.46,-12.36 c 0.5,-1.56 -4.02,-4.45 -4.91,-5.68 c -3.66,-2.37 -6.79,3.52 -9.39,5.33 c -45.04,44.91 -89.98,89.92 -134.81,135.04 c -2.88,6.4 6.27,8.62 7.1,14.26 c -2.58,5.66 -14.77,13.4 -14.81,18.67 Z M 239.81,554.98 c 22.83,27.7 58.74,55.31 92.94,66.72 c 3.14,0.69 4.74,-0.37 6.75,-2.66 c 0.34,-0.4 0.47,-0.86 0.37,-1.38 c -4.16,-2.83 -8.32,-5.68 -12.48,-8.54 c -3.15,-3.31 -2.94,-7.25 -0.66,-11.03 c 7.5,-9.19 16.45,-21.99 25.05,-29.69 c 12.05,-1.28 13.03,8.38 19.72,10.67 c 8.24,-2.1 -6.93,-11.67 -8.62,-14.44 c -24.34,-21.57 -49.66,-41.92 -75.97,-61.03 c -1.38,-1.06 -2.85,-1.93 -4.42,-2.61 c -2.56,1.81 -5.26,3.33 -8.11,4.58 c 3.06,3.42 6.25,6.72 9.58,9.92 c 0.65,0.67 0.65,1.35 0,2.02 c -12.96,12.97 -25.94,25.93 -38.91,38.89 c -0.41,0.37 -0.9,0.51 -1.44,0.42 c -1.04,-0.88 -2.11,-1.72 -3.2,-2.52 c -0.43,0.02 -0.63,0.25 -0.6,0.68 Z M 329.94,604.02 c 2.24,2.84 9.54,6.66 12.77,8.8 c 0.54,0.24 1.08,0.26 1.64,0.08 c 7.68,-9.3 15.39,-18.59 23.15,-27.86 c 0.34,-0.4 0.47,-0.87 0.38,-1.39 c -3.38,-2.91 -6.7,-5.89 -9.97,-8.96 c -0.98,-0.84 -2.09,-1.36 -3.33,-1.54 c -1.77,1.52 -3.42,3.18 -4.96,4.97 c -3.82,5.16 -18.24,20.97 -19.68,25.9 Z M 95.94,602.98 c 0.41,1.71 0.99,3.36 1.73,4.95 c 8.03,9.24 19.34,-3.69 9.6,-10.61 c -7.07,-0.42 -8.41,-0.92 -11.33,5.66 Z"/></g>
<g><path fill="#444444" stroke="#444444" stroke-width="0.5" d="M 243.95,401 c 3.89,-4.29 7.9,-8.46 12.04,-12.51 c 72.64,-72.66 145.29,-145.3 217.94,-217.95 c 0.71,-0.49 1.43,-0.49 2.14,0 c 7.97,7.96 16.05,15.99 22.66,25.13 c 0.53,1.37 2.98,3.71 1.22,5.02 c -1.39,0.86 -4.7,5.76 -6.34,5.15 c -7.27,-6.97 -14.45,-14.05 -21.55,-21.23 c -1.23,-0.82 -2.35,-0.71 -3.35,0.35 c -0.67,1.87 19.33,19.91 21.74,22.97 c 1.54,1.91 -1.94,5.04 -3.52,3.53 c -7.15,-7.14 -14.29,-14.28 -21.41,-21.44 c -1.02,-0.74 -1.79,-0.54 -2.32,0.59 c -1.2,2.93 18.66,19.77 21.26,23.32 c 1.34,1.52 -1,4.77 -3.02,3.08 c -7.12,-7.17 -14.27,-14.32 -21.43,-21.44 c -1.76,-0.71 -2.64,-0.12 -2.64,1.77 c 2.63,3.57 17.89,18.12 22.02,22.6 c 0.68,1.2 -2.29,4.79 -3.95,3.07 c -7.13,-7.16 -14.27,-14.31 -21.41,-21.46 c -0.99,-0.67 -1.9,-0.61 -2.75,0.17 c 0.12,1.2 0.59,2.24 1.42,3.15 c 6.83,7.09 13.73,14.11 20.7,21.07 c 0.89,1.35 -2.32,4.52 -4.09,2.18 c -3.92,-2.46 -20.46,-23.72 -23.65,-20.17 c -0.71,3.06 19.08,20.35 21.8,23.97 c 0.81,1.31 -2.06,3.94 -3.53,2.54 c -7.15,-7.14 -14.29,-14.28 -21.41,-21.44 c -1.53,-0.79 -2.36,-0.3 -2.47,1.48 c -0.09,1.96 18.9,19.44 21.41,22.43 c 1.22,1.38 -0.32,2.74 -1.36,3.55 c -1.49,0.44 -20.26,-19.06 -23.1,-21.89 c -1.75,-0.72 -2.64,-0.14 -2.66,1.75 c 2.33,3.3 17.8,17.84 21.52,22.37 c 0.34,1.64 -0.25,2.89 -1.77,3.74 c -1.5,0.43 -20.25,-19.08 -23.06,-21.9 c -0.99,-0.67 -1.9,-0.61 -2.75,0.17 c 0.12,1.2 0.59,2.24 1.42,3.15 c 6.83,7.09 13.72,14.11 20.69,21.07 c 0.84,1.33 -2.33,4.51 -4.08,2.18 c -3.69,-2.52 -20.21,-22.8 -23.33,-20.6 c -1.95,3.22 18.87,20.54 21.47,24.4 c 0.45,1.76 -1.95,3.82 -3.52,2.54 c -7.14,-7.14 -14.28,-14.28 -21.42,-21.42 c -1.52,-0.75 -2.34,-0.26 -2.46,1.45 c -0.09,1.98 18.9,19.44 21.41,22.44 c 1.5,1.54 -1.67,5.05 -3.53,3.53 c -7.14,-7.14 -14.28,-14.28 -21.42,-21.42 c -1.52,-0.75 -2.34,-0.26 -2.46,1.45 c -0.09,1.98 18.9,19.44 21.41,22.44 c 1.56,1.62 -1.7,5.01 -3.53,3.53 c -7.15,-7.14 -14.29,-14.28 -21.41,-21.44 c -1.53,-0.8 -2.34,-0.31 -2.42,1.45 c 0.47,2.35 18.54,19.25 21.39,22.45 c 1.35,1.55 -1.35,4.85 -3.05,3.09 c -3.01,-1.49 -23.5,-27.14 -23.81,-19.99 c 1.15,3.58 18.02,19.17 21.77,22.92 c 0.72,1.2 -2.31,4.78 -3.96,3.07 c -7.13,-7.16 -14.27,-14.31 -21.41,-21.46 c -0.99,-0.67 -1.9,-0.61 -2.75,0.17 c 0.12,1.2 0.59,2.24 1.42,3.15 c 6.83,7.09 13.73,14.11 20.7,21.07 c 0.58,1.81 -1.91,3.8 -3.47,2.52 c -3.34,-3.35 -20.98,-22.82 -23.94,-20.93 c -1.84,2.66 18.69,20.62 21.47,23.4 c 0.51,0.71 0.53,1.43 0.06,2.17 c -8.32,8.27 -16.57,16.62 -24.73,25.06 c -10.62,14.14 -21.83,30.78 -32.73,44.32 c -2.93,2.06 -5.53,-6.26 -8.1,-3.85 c -9.83,9.73 -19.57,19.55 -29.24,29.45 c -2.02,7.11 -1.55,14.72 -3.39,21.86 c -13.18,13.44 -26.45,26.79 -39.79,40.07 c -0.69,0.7 -1.38,0.7 -2.07,-0.01 c -1.59,-1.7 -3.18,-3.39 -4.78,-5.08 c -1.52,-2.05 2.3,-13.8 3.14,-16.6 c 0.06,-0.52 -0.08,-0.98 -0.43,-1.37 c -7.97,-7.83 -15.79,-15.82 -23.45,-23.95 Z M 330.36,285.1 c 1.46,-8.17 14.29,-2.99 7.69,4.36 c -4.17,0.96 -7.5,0.62 -7.69,-4.36 Z M 272.03,421 c 0.17,6.08 7.53,11.27 12.83,8.25 c 14.02,-11.39 -7.23,-25.12 -12.83,-8.25 Z M 276.94,420.98 c 2.97,-6.57 11.46,-1.12 6.42,3.89 c -4.05,0.56 -5.87,0.63 -6.42,-3.89 Z M 239.81,554.98 c -0.03,-0.43 0.17,-0.66 0.6,-0.68 c 1.09,0.8 2.16,1.64 3.2,2.52 c 0.54,0.09 1.03,-0.05 1.44,-0.42 c 12.97,-12.96 25.95,-25.92 38.91,-38.89 c 0.65,-0.67 0.65,-1.35 0,-2.02 c -3.33,-3.2 -6.52,-6.5 -9.58,-9.92 c 2.85,-1.25 5.55,-2.77 8.11,-4.58 c 1.57,0.68 3.04,1.55 4.42,2.61 c 26.31,19.11 51.63,39.46 75.97,61.03 c 1.69,2.77 16.86,12.34 8.62,14.44 c -6.69,-2.29 -7.67,-11.95 -19.72,-10.67 c -8.6,7.7 -17.55,20.5 -25.05,29.69 c -2.28,3.78 -2.49,7.72 0.66,11.03 c 4.16,2.86 8.32,5.71 12.48,8.54 c 0.1,0.52 -0.03,0.98 -0.37,1.38 c -2.01,2.29 -3.61,3.35 -6.75,2.66 c -34.2,-11.41 -70.11,-39.02 -92.94,-66.72 Z M 329.94,604.02 c 1.44,-4.93 15.86,-20.74 19.68,-25.9 c 1.54,-1.79 3.19,-3.45 4.96,-4.97 c 1.24,0.18 2.35,0.7 3.33,1.54 c 3.27,3.07 6.59,6.05 9.97,8.96 c 0.09,0.52 -0.04,0.99 -0.38,1.39 c -7.76,9.27 -15.47,18.56 -23.15,27.86 c -0.56,0.18 -1.1,0.16 -1.64,-0.08 c -3.23,-2.14 -10.53,-5.96 -12.77,-8.8 Z M 95.94,602.98 c 2.92,-6.58 4.26,-6.08 11.33,-5.66 c 9.74,6.92 -1.57,19.85 -9.6,10.61 c -0.74,-1.59 -1.32,-3.24 -1.73,-4.95 Z"/></g>
<g><path fill="#7f7f7f" stroke="#7f7f7f" stroke-width="0.5" d="M 442.9,146 c 0.83,-4.6 3.51,-6.39 8.04,-5.37 c 10.69,6.57 -5.98,17.59 -8.04,5.37 Z M 56.98,568.99 c 5.39,-5.81 20.04,-22.76 26.78,-24.68 c 2.83,-0.97 14.06,-2.95 15.68,-4.49 c 38.46,-38.12 76.74,-76.42 114.83,-114.91 c 2.75,-6.21 3.11,-10.56 1.39,-17.14 c -7.63,-14.24 -15.3,-28.46 -23.01,-42.67 c -0.84,-1.86 3.33,-3.34 4.3,-4.45 c 0.37,-0.16 0.74,-0.18 1.12,-0.04 c 0.59,1.64 1.29,3.25 2.1,4.82 c 19.04,20.92 39.34,40.42 59.27,60.51 c 0.49,0.71 0.49,1.41 0,2.12 c -57.12,57.13 -114.25,114.26 -171.38,171.38 c -1.03,0.66 -1.91,0.49 -2.65,-0.51 c -3.98,-3.96 -28.15,-26.75 -28.43,-29.94 Z M 176.99,468.99 c -0.37,3.88 10.3,12.09 12.87,15.27 c 0.63,0.24 1.24,0.18 1.82,-0.18 c 14.73,-11.84 29.31,-28.52 42.67,-42.19 c 0.57,-0.64 0.72,-1.36 0.44,-2.16 c -4.13,-4.5 -8.37,-8.88 -12.74,-13.16 c -1.45,-1.21 -3.32,0.8 -4.47,1.62 c -13.69,13.41 -27.49,26.81 -40.59,40.8 Z M 108.99,621 c 0.04,-5.27 12.23,-13.01 14.81,-18.67 c -0.83,-5.64 -9.98,-7.86 -7.1,-14.26 c 44.83,-45.12 89.77,-90.13 134.81,-135.04 c 2.6,-1.81 5.73,-7.7 9.39,-5.33 c 0.89,1.23 5.41,4.12 4.91,5.68 c -3.89,4.06 -7.71,8.18 -11.46,12.36 c -0.2,4.21 -0.25,8.43 -0.16,12.65 c 0.19,2.24 10.95,12.3 13.16,14.56 c 0.23,0.58 0.13,1.09 -0.3,1.54 c -1.06,0.18 -2.04,0.57 -2.92,1.14 c -1.22,4.05 -2.55,8.07 -3.98,12.05 c -0.33,2.84 8.94,7.15 6.21,10.21 c -7.15,7.5 -14.47,14.81 -21.97,21.92 c -0.55,0.12 -1.03,0 -1.45,-0.37 c -2.6,-2.63 -5.23,-5.22 -7.89,-7.79 c -2.07,-1 -3.79,4.84 -6.11,2.79 c -5.48,-5.47 -10.95,-10.94 -16.42,-16.42 c -0.68,-0.67 -1.36,-0.67 -2.04,0 c -3.58,3.73 -7.32,7.27 -11.22,10.64 c -2.65,0.6 -12.49,-0.05 -14.19,1.04 c -25.49,26.83 -51.64,38.78 -40.78,81.51 c 0.22,1.43 2.54,6.91 1.98,7.96 c -6.51,6.68 -13.14,13.23 -19.88,19.64 c -0.55,0.12 -1.03,0 -1.45,-0.37 c -2.79,-2.75 -15.66,-14.56 -15.95,-17.44 Z"/></g>
<g><path fill="#232323" fill-opacity="0.071" stroke="#232323" stroke-width="0.5" stroke-opacity="0.071" d="M 481.58,155.79 c 5.02,5.01 10.03,10.05 15.03,15.1 c 4.2,4.35 8.28,8.79 12.25,13.33 c -0.34,0.69 -0.8,1.28 -1.36,1.8 c -8.36,-10.41 -17.53,-20.05 -27.5,-28.94 c 0.38,-0.6 0.9,-1.04 1.58,-1.29 Z"/></g>
<g><path fill="#343434" fill-opacity="0.122" stroke="#343434" stroke-width="0.5" stroke-opacity="0.122" d="M 466.81,151.22 c 0.96,0.06 1.51,0.58 1.66,1.55 c -0.36,0.69 -0.82,1.3 -1.37,1.84 c -6.29,6.38 -12.67,12.64 -19.16,18.79 c -0.29,-0.01 -0.58,-0.02 -0.87,-0.03 c 0.11,-0.72 0.42,-1.34 0.94,-1.86 c 6.18,-6.14 12.35,-12.29 18.5,-18.46 c 0.37,-0.57 0.47,-1.18 0.3,-1.83 Z"/></g>
<g><path fill="#513b3b" stroke="#513b3b" stroke-width="0.5" d="M 324.19,400.81 c 0.55,-2.92 1.04,-5.83 1.48,-8.75 c 6.19,-6.43 12.45,-12.78 18.79,-19.06 c 0.46,-0.47 0.99,-0.6 1.6,-0.38 c 2.32,2.27 4.55,4.62 6.7,7.05 c 14.84,22.21 29.68,44.42 44.51,66.64 c 1.96,2.45 4.34,4.38 7.15,5.8 c 0.56,0.61 0.59,1.25 0.07,1.92 c -6.14,4.98 -12.53,9.6 -19.17,13.87 c -0.78,0.09 -1.03,-0.23 -0.74,-0.96 c 3.44,-3.51 6.74,-7.15 9.88,-10.92 c 0.78,-1.16 0.5,-1.77 -0.82,-1.83 c -4.04,3.93 -7.97,7.98 -11.77,12.15 c -0.77,0.62 -1.61,1.12 -2.52,1.49 c -6.02,0.38 9.62,-15.1 11.1,-16.8 c 0.46,-0.72 0.59,-1.51 0.39,-2.34 c -0.52,-0.35 -0.99,-0.25 -1.4,0.29 c -2.37,1.63 -12.12,15.73 -14.35,13.42 c -2.09,-3.03 9.9,-14.57 12.37,-17.38 c 0.68,-1.67 0.19,-2.16 -1.48,-1.48 c -2.52,1.45 -11.65,15.19 -13.89,12.86 c -2.47,-3.19 9.47,-12.5 11.22,-15.53 c 0.84,-0.94 1.34,-2.02 1.51,-3.24 c -0.56,-0.57 -1.18,-0.6 -1.84,-0.09 c -4.03,4.63 -8.06,9.25 -12.09,13.87 c -1.49,1.95 -3.36,-1.99 -2.35,-3.48 c 3.86,-4.39 7.83,-8.69 11.91,-12.9 c 1.08,-1.42 0.5,-3.97 -1.46,-2.51 c -3.65,4.32 -7.3,8.65 -10.96,12.97 c -1.95,1.67 -3.51,-2.47 -2.49,-3.56 c 3.87,-4.39 7.84,-8.69 11.91,-12.9 c 1.67,-3.02 -0.41,-3.1 -2.34,-1.4 c -3.23,3.76 -6.43,7.54 -9.59,11.36 c -2.07,2.85 -4.1,-1.77 -2.98,-3.06 c 3.74,-4.2 7.56,-8.33 11.45,-12.4 c 1.47,-1.85 -1.06,-3.16 -1.85,-1.91 c -3.5,4.16 -7.08,8.23 -10.76,12.21 c -8.84,0.77 8.3,-14.39 9.07,-15.8 c 1.09,-1.43 0.47,-3.98 -1.46,-2.51 c -1.8,1.3 -12.16,17.85 -12.99,9.98 c -0.09,-1.57 10.03,-11.29 11.46,-13.48 c 0.68,-1.67 0.19,-2.16 -1.48,-1.48 c -3.85,4.01 -7.65,8.03 -11.4,12.07 c -1.89,-3.32 -3.84,-6.62 -5.87,-9.92 c -6.58,-8.18 -14,-11.66 -24.52,-11.88 Z"/></g>
</svg>
