<?xml version="1.0" encoding="UTF-8"?>
<!DOCTYPE svg PUBLIC "-//W3C//DTD SVG 1.1//EN" "http://www.w3.org/Graphics/SVG/1.1/DTD/svg11.dtd">
<svg xmlns="http://www.w3.org/2000/svg" version="1.1" width="256px" height="256px" style="shape-rendering:geometricPrecision; text-rendering:geometricPrecision; image-rendering:optimizeQuality; fill-rule:evenodd; clip-rule:evenodd" xmlns:xlink="http://www.w3.org/1999/xlink">
<g><path fill="#373737" fill-opacity="0.996" stroke="#373737" stroke-width="0.5" stroke-opacity="0.996" d="M 192.44,52.05 c 7.43,-11.17 22.36,-19.97 28.73,-32.38 c 2.99,-2.41 8.39,-9.82 11.82,-10.57 c 2.46,0.7 7.41,5.05 6.04,7.81 c -5.24,6.16 -9.22,10.43 -16.46,14.16 c -7.52,7.48 -15.02,14.98 -22.51,22.49 c -2.65,3.02 -6.69,2.66 -7.62,-1.51 Z M 228.62,14.99 c 0.51,3.42 4.13,6.26 6.98,3.25 c 1.69,-4.01 -5.18,-8.58 -6.98,-3.25 Z M 222.92,21.82 c 1.46,3.33 3.7,4.82 6.86,2.5 c 1.45,-3.76 -2.63,-7.61 -6.15,-5.11 c -0.71,0.71 -0.94,1.58 -0.71,2.61 Z M 166.88,46.88 c 2.32,-0.38 10.17,7.35 9.54,8.14 c -2.43,2.53 -9.03,-6.03 -9.54,-8.14 Z M 91.82,184.01 c 2.01,-2.16 4.25,-4.08 6.72,-5.75 c 1.5,0 3,0.13 4.5,0.36 c 2.18,-0.98 3.84,-2.51 4.98,-4.61 c 0.1,-0.77 -0.02,-1.49 -0.38,-2.18 c -1.4,-2.58 -3.06,-2.81 -4.98,-0.69 c -0.71,1.06 -0.56,1.93 0.44,2.6 c -0.37,0.66 -0.74,1.31 -1.11,1.94 c -1.04,-0.9 -2.17,-1.06 -3.39,-0.47 c -2.89,2.72 -5.82,5.39 -8.78,8.03 c -3.61,1.86 -8.22,-0.49 -11.33,1.83 c -6.08,5.95 -12.12,11.93 -18.13,17.95 c -1.78,1.78 -3.56,3.56 -5.34,5.35 c -6.87,6.91 -13.76,13.79 -20.67,20.65 c -2.44,3.09 -4.26,2.59 -6.95,0.09 c -2.05,-1.97 -4.01,-4.02 -5.9,-6.14 c -2.07,-2.33 -3.36,-5.25 -0.82,-7.79 c 4.07,-4.35 8.24,-7.51 11.4,-12.65 c 13.19,-13.82 27.09,-26.89 40.73,-40.22 c 1.72,-2.07 1.81,-3.1 2.35,-5.61 c 1.68,-1.65 3.41,-3.25 5.19,-4.81 c 0.31,-0.66 0.72,-1.25 1.24,-1.76 c 0.71,-0.39 1.43,-0.67 2.17,-0.85 c 0.08,-0.84 0.27,-1.66 0.58,-2.44 c 0.76,-0.5 1.57,-0.69 2.44,-0.57 c 0.17,-0.78 0.44,-1.52 0.82,-2.21 c 2.58,-1.51 2.49,-3.61 5.67,-4.28 c -0.12,-0.87 0.07,-1.68 0.57,-2.44 c 0.78,-0.3 1.6,-0.5 2.44,-0.58 c 0.17,-0.74 0.45,-1.46 0.85,-2.17 c 2.45,-1.96 4.47,-3.98 6.46,-6.46 c 0.71,-0.39 1.43,-0.67 2.17,-0.85 c 0.12,-1.7 0.99,-2.83 2.6,-3.38 c 0.51,-0.82 1.06,-1.61 1.65,-2.36 c 2.73,-0.86 2.23,-3.69 5.26,-3.76 c -0.12,-0.87 0.07,-1.68 0.57,-2.44 c 0.78,-0.3 1.6,-0.5 2.44,-0.58 c 0.17,-0.74 0.46,-1.46 0.86,-2.17 c 1.94,-1.19 2.77,-4.01 5.32,-4 c 0.34,-0.88 0.64,-1.8 0.88,-2.75 c 0.76,-0.5 1.57,-0.69 2.44,-0.57 c 0.17,-0.79 0.45,-1.53 0.84,-2.23 c 2.13,-1.05 2.28,-2.73 3.4,-3.87 c 1.26,0.17 3.68,-0.46 1.78,-1.87 c 0.58,-0.29 1.03,-0.73 1.33,-1.3 c 0.63,0.08 1.17,-0.1 1.6,-0.53 c -0.73,-0.56 -1.27,-0.38 -1.6,0.53 c -0.74,0.12 -1.18,0.55 -1.33,1.3 c -1.15,0.04 -1.75,0.67 -1.78,1.87 c -2.41,0.02 -3.03,0.93 -5.68,-1.01 c -4.16,-4.13 -8.3,-8.27 -12.43,-12.42 c -1.59,-1.56 -2.01,0.01 -2.3,1.39 c -4.61,4.73 -9,10.22 -14.45,14.04 c -1.83,0.09 -2.96,-0.76 -3.39,-2.57 c 0.4,-1 0.94,-1.95 1.61,-2.84 c 4.65,-2.93 13.13,-17.19 19.26,-12.78 c 3.9,3.71 7.75,7.5 11.53,11.36 c 5.62,6.77 8.31,-8.19 14.38,-7.23 c 0.96,0.52 1.93,1.03 2.89,1.53 c 0.3,-0.59 0.6,-1.19 0.9,-1.79 c 0.81,-0.28 1.62,-0.47 2.42,-0.57 c 0.08,-0.84 0.27,-1.66 0.58,-2.44 c 0.76,-0.5 1.57,-0.69 2.44,-0.56 c 0.46,-2.75 1.06,-2.46 3.06,-3.96 c 0.53,-1.66 1.67,-2.51 3.43,-2.55 c -0.12,-0.86 0.07,-1.67 0.57,-2.43 c 0.78,-0.3 1.6,-0.5 2.44,-0.58 c 0.17,-0.74 0.45,-1.46 0.85,-2.17 c 1.98,-1.58 4.55,-3.94 5.95,-5.97 c 0.78,-0.72 1.67,-1.17 2.69,-1.34 c 0.05,-1.74 0.89,-2.9 2.54,-3.47 c 1.48,-2.76 5.08,-3.39 6.91,-6.07 c 0.38,-1.75 1.01,-2.87 3.07,-2.97 c 0.28,-0.46 0.36,-0.97 0.21,-1.54 c 2.23,-1.92 3.33,-0.71 5.34,0.46 c 3.45,3.39 13,7.63 9.9,13.64 c -1.51,2.12 -3.16,4.13 -4.93,6.04 c -18.22,18.08 -36.3,36.3 -54.23,54.65 c -1.72,2.58 0.31,5.93 -1.22,8.99 c -7.25,11.32 -14.51,22.63 -21.79,33.94 c -1.22,1.91 -1.34,3.27 -0.79,5.39 c -0.89,1.76 -1.65,-1.63 -2.78,-0.82 c -1.24,4.14 -4.73,6.19 -7.4,9.23 c -0.63,2.45 3.3,14.03 4.92,16.77 c 1.09,4.08 -9.88,9.07 -13.01,9.35 c -2.84,0.13 -2.57,-3.51 -3.21,-5.41 c 0.25,-3.29 -2.56,-16.38 -0.48,-18.45 Z M 115.75,170.94 c 1.08,-4.22 14.85,-23.47 17.85,-28.95 c 0.76,-0.77 2.06,-3.38 3.4,-2.79 c 4.55,3.16 8.58,7.66 12.24,11.8 c 0.56,1.2 0.45,2.36 -0.34,3.46 c -6.06,8.29 -12.1,16.6 -18.12,24.92 c -0.87,0.65 -2.6,3.68 -3.84,2.8 c -2.21,-1.81 -10.67,-8.77 -11.19,-11.24 Z M 134.73,149.96 c 2.02,2.16 4.1,4.24 6.25,6.26 c 2.09,1.01 2.14,-2.1 3.22,-3.2 c 0.18,-0.55 0.1,-1.05 -0.26,-1.5 c -1.95,-1.95 -3.91,-3.87 -5.91,-5.76 c -2.1,-0.66 -3.43,2.53 -3.3,4.2 Z M 60.87,150.07 c 0.58,-0.32 1.18,-0.36 1.79,-0.13 c 2.03,2.57 4.26,4.97 6.67,7.21 c 0.9,0.77 1.87,1.46 2.89,2.06 c 0.8,1.52 -0.34,3.14 -1.97,1.99 c -1.98,-3.59 -8.51,-7.6 -9.38,-11.13 Z M 121.08,170 c 1.57,1.83 3.21,3.59 4.91,5.3 c 1.46,0.52 2.65,0.09 3.54,-1.28 c 2.08,-3.48 5.13,-8.27 8.21,-10.86 c 0.34,-0.48 0.38,-0.99 0.14,-1.53 c -1.17,-1.17 -5.7,-6.66 -7.21,-6.39 c -2.1,2.88 -4.14,5.8 -6.14,8.78 c -1.04,2.05 -2.19,4.04 -3.45,5.98 Z M 94.89,188 c 0.44,4.73 0.93,9.46 1.46,14.18 c 0.55,0.58 1.22,0.77 2.02,0.55 c 4.26,-1.41 5.89,-3.25 4.24,-7.77 c -0.87,-2.45 -2.28,-9.63 -3.7,-11.3 c -1.32,-0.48 -3.64,3.25 -4.02,4.34 Z M 61.05,205.24 c 2.07,5.11 3.47,9.06 7.83,12.76 c 0.14,0.5 0.11,0.99 -0.09,1.47 c -2.53,1.74 -4.99,3.6 -7.38,5.57 c -5.75,7.29 -12.15,22.6 -22.76,22.72 c -5.02,-0.63 -6.88,-7.37 -10.74,-10.18 c -2.7,-3.19 -10.58,-5.48 -11.7,-9.21 c -1.04,-3 -0.18,-5.24 2.58,-6.72 c 0.24,1.03 0.75,1.92 1.55,2.64 c 0.45,1.1 1.13,2.03 2.06,2.81 c 2.4,2.45 4.96,4.72 7.68,6.79 c 2.1,0.04 3.6,-0.92 4.5,-2.87 c 0.23,-0.45 0.26,-0.91 0.09,-1.39 c 1.87,1.85 3.8,3.63 5.8,5.35 c 0.4,0.45 0.87,0.56 1.39,0.3 c 3.01,-5.73 17.35,-18.91 15.61,-25.16 c 0.3,-2.29 1.49,-3.92 3.58,-4.88 Z"/></g>
<g><path fill="#7f7f7f" stroke="#7f7f7f" stroke-width="0.5" d="M 94.89,188 c 0.38,-1.09 2.7,-4.82 4.02,-4.34 c 1.42,1.67 2.83,8.85 3.7,11.3 c 1.65,4.52 0.02,6.36 -4.24,7.77 c -0.8,0.22 -1.47,0.03 -2.02,-0.55 c -0.53,-4.72 -1.02,-9.45 -1.46,-14.18 Z"/></g>
<g><path fill="#101010" fill-opacity="0.059" stroke="#101010" stroke-width="0.5" stroke-opacity="0.059" d="M 101.99,175.68 c 1.94,0.68 3.36,0.08 4.26,-1.78 c 0.59,-0.03 1.18,0.01 1.77,0.11 c -1.14,2.1 -2.8,3.63 -4.98,4.61 c -1.5,-0.23 -3,-0.36 -4.5,-0.36 c -2.47,1.67 -4.71,3.59 -6.72,5.75 c -0.7,-0.15 -1.37,-0.41 -2,-0.77 c 2.96,-2.64 5.89,-5.31 8.78,-8.03 c 1.22,-0.59 2.35,-0.43 3.39,0.47 Z M 21.5,222.97 c 1.89,2.12 3.85,4.17 5.9,6.14 c 2.69,2.5 4.51,3 6.95,-0.09 c 0.11,0.2 0.22,0.41 0.32,0.61 c 0.17,0.48 0.14,0.94 -0.09,1.39 c -0.9,1.95 -2.4,2.91 -4.5,2.87 c -2.72,-2.07 -5.28,-4.34 -7.68,-6.79 c -0.93,-0.78 -1.61,-1.71 -2.06,-2.81 c 0.33,-0.49 0.72,-0.93 1.16,-1.32 Z"/></g>
<g><path fill="#3f3f3f" fill-opacity="0.071" stroke="#3f3f3f" stroke-width="0.5" stroke-opacity="0.071" d="M 60.36,203.02 c 0.18,0.48 2.14,2.03 0.69,2.22 c -2.09,0.96 -3.28,2.59 -3.58,4.88 c -1.07,-0.19 -1.89,-0.78 -2.45,-1.75 c 1.78,-1.79 3.56,-3.57 5.34,-5.35 Z"/></g>
<g><path fill="#212121" stroke="#212121" stroke-width="0.5" d="M 134.73,149.96 c -0.13,-1.67 1.2,-4.86 3.3,-4.2 c 2,1.89 3.96,3.81 5.91,5.76 c 0.36,0.45 0.44,0.95 0.26,1.5 c -1.08,1.1 -1.13,4.21 -3.22,3.2 c -2.15,-2.02 -4.23,-4.1 -6.25,-6.26 Z M 121.08,170 c 1.26,-1.94 2.41,-3.93 3.45,-5.98 c 2,-2.98 4.04,-5.9 6.14,-8.78 c 1.51,-0.27 6.04,5.22 7.21,6.39 c 0.24,0.54 0.2,1.05 -0.14,1.53 c -3.08,2.59 -6.13,7.38 -8.21,10.86 c -0.89,1.37 -2.08,1.8 -3.54,1.28 c -1.7,-1.71 -3.34,-3.47 -4.91,-5.3 Z"/></g>
<g><path fill="#292929" fill-opacity="0.196" stroke="#292929" stroke-width="0.5" stroke-opacity="0.196" d="M 133.8,97.3 c 1.9,1.41 -0.52,2.04 -1.78,1.87 c 0.03,-1.2 0.63,-1.83 1.78,-1.87 Z"/></g>
<g><path fill="#363636" fill-opacity="0.718" d="M 103.1,173.74 c 1.04,0.22 2.09,0.27 3.15,0.16 c -0.9,1.86 -2.32,2.46 -4.26,1.78 c 0.37,-0.63 0.74,-1.28 1.11,-1.94 Z"/></g>
<g><path fill="#333333" fill-opacity="0.416" stroke="#333333" stroke-width="0.5" stroke-opacity="0.416" d="M 135.13,96 c -0.3,0.57 -0.75,1.01 -1.33,1.3 c 0.15,-0.75 0.59,-1.18 1.33,-1.3 Z"/></g>
<g><path fill="#353535" fill-opacity="0.275" stroke="#353535" stroke-width="0.5" stroke-opacity="0.275" d="M 135.13,96 c 0.33,-0.91 0.87,-1.09 1.6,-0.53 c -0.43,0.43 -0.97,0.61 -1.6,0.53 Z"/></g>
</svg>
