<?xml version="1.0" encoding="UTF-8"?>
<!DOCTYPE svg PUBLIC "-//W3C//DTD SVG 1.1//EN" "http://www.w3.org/Graphics/SVG/1.1/DTD/svg11.dtd">
<svg xmlns="http://www.w3.org/2000/svg" version="1.1" width="683px" height="683px" style="shape-rendering:geometricPrecision; text-rendering:geometricPrecision; image-rendering:optimizeQuality; fill-rule:evenodd; clip-rule:evenodd" xmlns:xlink="http://www.w3.org/1999/xlink">
<g><path fill="#297027" stroke="#297027" stroke-width="0.5" d="M 26.98,476.98 c 4.31,-8.04 12.84,-13.99 18.02,-21.51 c 14.95,-15.18 43.07,-52.57 44.03,-73.98 c 1.94,-7.2 1,-15.85 2.94,-22.99 c 0.33,-14.12 3.27,-28.11 4.05,-42.01 c 0.9,-3.02 2.95,-17.8 3,-21 c 6.96,-33.55 11.31,-67.16 36.98,-92.96 c 8.88,-11.86 25.6,-26.07 38.62,-33.36 c 21.76,-11.81 43.84,-18.1 67.88,-22.21 c 7.96,-2.01 17.07,-2.1 24.99,-3.94 c 11.01,-0.35 21.72,-2.45 33.02,-2.05 c 6.49,-2.05 28.77,-0.48 37.01,-0.95 c 6,-1.55 8.38,-1.39 13.96,0 c 7.74,0.46 27.84,-1.09 34.01,0.95 c 22.47,0.45 45.04,4.31 66.85,9.25 c 47.02,12.86 82.37,35.79 105.17,79.76 c 14.31,33.19 24.32,70.29 29.52,105.53 c 1.95,5.53 1.28,11.52 2.95,16.98 c 1.05,37.2 16.05,57.91 52.04,67.99 c 7.78,2.93 18.72,6.96 12.45,17.54 c -11.13,7.76 -19.08,8.57 -31.97,11.02 c -8.59,2.19 -18.58,2.26 -26.99,3.94 c -13.06,0.2 -25.68,2.61 -39.02,2.05 c -5.06,2.01 -17.96,0.47 -24,1 c -1.26,0.57 -2.59,0.9 -3.97,0.99 c -30.52,-0.65 -60.48,1.69 -91.03,1.01 c -3.24,1.82 -7.49,0.12 -10.14,1.77 c -35.22,5.64 -65.42,26.35 -94.37,45.77 c -3.55,3.61 -8.43,5.27 -11.96,8.87 c -19.56,12.08 -37.03,28.17 -61.53,27.59 c -8.91,2.66 -20.36,-0.72 -29.99,2.01 c -1.39,-0.1 -2.72,-0.44 -3.99,-1.01 c -7.04,-0.56 -24.32,1.05 -30.01,-1 c -18.42,-0.11 -35.97,-3.91 -54.01,-6.06 c -7.08,-1.64 -17.63,-3.84 -24.84,-5.18 c -28.96,-7.93 -60.4,-16.32 -83.65,-36.25 c -5.23,-7.72 -6.46,-6.75 -6.02,-17.56 Z M 216.07,251.02 c 0.24,1.96 1.06,3.63 2.44,5 c 17.2,13.53 34.41,27.02 51.65,40.49 c 1.46,1.63 6.24,4.27 5.16,6.88 c -6.89,23.51 -13.87,47 -20.93,70.47 c -1.92,6.22 1.31,10.07 7.11,6.03 c 16.61,-12.97 33.2,-25.95 49.77,-38.97 c 2.33,-1.82 4.77,-3.46 7.34,-4.91 c 0.55,-0.09 1.07,0.01 1.54,0.31 c 18.81,13.44 38.24,29.93 56.93,43.97 c 6.58,3.91 8.14,-1.76 6.34,-7.22 c -7.02,-23.2 -13.93,-46.43 -20.74,-69.69 c -0.21,-0.6 -0.2,-1.2 0.01,-1.8 c 1.55,-1.84 3.28,-3.53 5.17,-5.04 c 17.22,-13.49 34.43,-27 51.63,-40.52 c 3.36,-3.05 3.26,-7.8 -2.05,-8.1 c -22.9,-0.24 -45.8,-0.37 -68.71,-0.37 c -2.34,0 -3.71,-1.16 -4.11,-3.5 c -6.66,-22.31 -13.37,-44.61 -20.11,-66.9 c -1.31,-6.08 -6.61,-11.67 -10,-2.97 c -7.15,23.26 -14.19,46.55 -21.13,69.87 c -0.39,2.34 -1.77,3.51 -4.11,3.5 c -22.91,0 -45.81,0.13 -68.71,0.37 c -2.14,0.1 -3.64,1.13 -4.49,3.1 Z M 246.01,260.93 c 0.32,-0.62 0.84,-0.87 1.57,-0.74 c 16.29,0.19 32.57,0.15 48.85,-0.11 c 7.66,0.01 7.29,-8.26 9.55,-13.58 c 4.29,-13.89 8.38,-27.82 12.29,-41.8 c 0.21,-0.47 0.56,-0.62 1.05,-0.47 c 4.9,16.32 9.85,32.67 14.85,49.03 c 0.49,2.27 1.6,4.16 3.32,5.69 c 6.32,2.53 44.29,0.85 53.87,1.37 c 1.11,0.55 0.08,1.55 -0.48,2.1 c -12.61,10.05 -25.26,20.04 -37.96,29.98 c -1.53,1.23 -2.83,2.66 -3.9,4.29 c -1.55,6.98 12.52,45.27 14.71,54.92 c 0.49,2.28 -0.16,2.67 -1.95,1.17 c -12.91,-10.45 -25.91,-20.79 -39,-31.02 c -2.52,-1.07 -5.03,-1.07 -7.55,0 c -13,10.34 -26,20.68 -39.01,31.02 c -0.67,0.61 -2.44,1.8 -2.02,-0.24 c 4.87,-16.48 9.74,-32.96 14.62,-49.44 c 0.56,-1.82 0.71,-3.67 0.44,-5.56 c -5.53,-8.86 -33.98,-26.61 -43.25,-36.61 Z M 298.99,285 c -1.12,21.75 25.61,30.63 37.83,14.37 c 3.01,-5.69 5.17,-10 3.97,-16.71 c -6.21,-22.54 -35.42,-23.04 -41.58,0.01 c -0.19,0.76 -0.27,1.54 -0.22,2.33 Z"/></g>
<g><path fill="#010100" d="M 216.07,251.02 c 0.85,-1.97 2.35,-3 4.49,-3.1 c 22.9,-0.24 45.8,-0.37 68.71,-0.37 c 2.34,0.01 3.72,-1.16 4.11,-3.5 c 6.94,-23.32 13.98,-46.61 21.13,-69.87 c 3.39,-8.7 8.69,-3.11 10,2.97 c 6.74,22.29 13.45,44.59 20.11,66.9 c 0.4,2.34 1.77,3.5 4.11,3.5 c 22.91,0 45.81,0.13 68.71,0.37 c 5.31,0.3 5.41,5.05 2.05,8.1 c -17.2,13.52 -34.41,27.03 -51.63,40.52 c -1.89,1.51 -3.62,3.2 -5.17,5.04 c -0.21,0.6 -0.22,1.2 -0.01,1.8 c 6.81,23.26 13.72,46.49 20.74,69.69 c 1.8,5.46 0.24,11.13 -6.34,7.22 c -18.69,-14.04 -38.12,-30.53 -56.93,-43.97 c -0.47,-0.3 -0.99,-0.4 -1.54,-0.31 c -2.57,1.45 -5.01,3.09 -7.34,4.91 c -16.57,13.02 -33.16,26 -49.77,38.97 c -5.8,4.04 -9.03,0.19 -7.11,-6.03 c 7.06,-23.47 14.04,-46.96 20.93,-70.47 c 1.08,-2.61 -3.7,-5.25 -5.16,-6.88 c -17.24,-13.47 -34.45,-26.96 -51.65,-40.49 c -1.38,-1.37 -2.2,-3.04 -2.44,-5 Z M 218.15,251.1 c 0.2,0.49 0.49,0.91 0.87,1.27 c 19.88,15.48 39.72,31.01 59.52,46.59 c 0.62,0.39 1.02,0.93 1.21,1.62 c -7.86,26.4 -15.68,52.76 -23.46,79.08 c 20.47,-15.81 40.85,-31.72 61.15,-47.75 c 0.56,-0.5 1.2,-0.72 1.94,-0.66 c 20.79,16.07 41.52,32.23 62.16,48.49 c 0.36,-0.26 0.43,-0.59 0.21,-1.01 c -8,-26 -15.83,-52.04 -23.48,-78.15 c 0.32,-0.89 0.91,-1.58 1.76,-2.06 c 19.96,-15.57 39.82,-31.22 59.58,-46.98 c -0.23,-0.39 -0.58,-0.57 -1.06,-0.54 c -24.97,0.05 -49.94,-0.01 -74.9,-0.17 c -0.69,-0.69 -1.12,-1.53 -1.28,-2.52 c -7.58,-25.42 -15.27,-50.78 -23.06,-76.08 c -0.49,-0.15 -0.84,0 -1.07,0.46 c -7.56,25.69 -15.24,51.36 -23.03,76.99 c -0.11,0.51 -0.4,0.9 -0.86,1.16 c -25.4,0.12 -50.8,0.2 -76.2,0.26 Z M 235.1,257.12 c 20.8,-0.12 41.6,-0.19 62.4,-0.22 c 0.57,0.05 1.11,-0.06 1.61,-0.32 c 6.49,-20.63 12.79,-41.32 18.91,-62.07 c 0.09,-0.8 0.51,-1.24 1.26,-1.32 c 6.55,21.11 13.09,42.24 19.61,63.38 c 3.52,0.33 7.06,0.46 10.62,0.39 c 17.35,0.04 34.7,0.02 52.05,-0.05 c 0.53,-0.02 0.95,0.17 1.27,0.58 c -15.72,12.21 -31.42,24.49 -47.1,36.84 c -0.76,0.84 -4.26,3.04 -4.33,4.04 c 5.96,20.48 12.06,40.93 18.29,61.33 c 0.34,0.83 0.42,1.68 0.26,2.54 c -0.55,0.3 -1.05,0.22 -1.51,-0.25 c -16.01,-12.67 -32.07,-25.28 -48.17,-37.83 c -0.52,-0.39 -1.1,-0.51 -1.73,-0.38 c -16.72,12.88 -33.39,25.8 -50.03,38.77 c -1.08,-0.25 -0.45,-1.22 -0.44,-1.97 c 6.32,-20.7 12.5,-41.44 18.55,-62.21 c -0.07,-1 -3.58,-3.21 -4.35,-4.05 c -15.46,-12.27 -31.05,-24.37 -46.76,-36.31 c -0.27,-0.24 -0.4,-0.54 -0.41,-0.89 Z M 246.01,260.93 c 9.27,10 37.72,27.75 43.25,36.61 c 0.27,1.89 0.12,3.74 -0.44,5.56 c -4.88,16.48 -9.75,32.96 -14.62,49.44 c -0.42,2.04 1.35,0.85 2.02,0.24 c 13.01,-10.34 26.01,-20.68 39.01,-31.02 c 2.52,-1.07 5.03,-1.07 7.55,0 c 13.09,10.23 26.09,20.57 39,31.02 c 1.79,1.5 2.44,1.11 1.95,-1.17 c -2.19,-9.65 -16.26,-47.94 -14.71,-54.92 c 1.07,-1.63 2.37,-3.06 3.9,-4.29 c 12.7,-9.94 25.35,-19.93 37.96,-29.98 c 0.56,-0.55 1.59,-1.55 0.48,-2.1 c -9.58,-0.52 -47.55,1.16 -53.87,-1.37 c -1.72,-1.53 -2.83,-3.42 -3.32,-5.69 c -5,-16.36 -9.95,-32.71 -14.85,-49.03 c -0.49,-0.15 -0.84,0 -1.05,0.47 c -3.91,13.98 -8,27.91 -12.29,41.8 c -2.26,5.32 -1.89,13.59 -9.55,13.58 c -16.28,0.26 -32.56,0.3 -48.85,0.11 c -0.73,-0.13 -1.25,0.12 -1.57,0.74 Z"/></g>
<g><path fill="#500001" stroke="#500001" stroke-width="0.5" d="M 218.15,251.1 c 25.4,-0.06 50.8,-0.14 76.2,-0.26 c 0.46,-0.26 0.75,-0.65 0.86,-1.16 c 7.79,-25.63 15.47,-51.3 23.03,-76.99 c 0.23,-0.46 0.58,-0.61 1.07,-0.46 c 7.79,25.3 15.48,50.66 23.06,76.08 c 0.16,0.99 0.59,1.83 1.28,2.52 c 24.96,0.16 49.93,0.22 74.9,0.17 c 0.48,-0.03 0.83,0.15 1.06,0.54 c -19.76,15.76 -39.62,31.41 -59.58,46.98 c -0.85,0.48 -1.44,1.17 -1.76,2.06 c 7.65,26.11 15.48,52.15 23.48,78.15 c 0.22,0.42 0.15,0.75 -0.21,1.01 c -20.64,-16.26 -41.37,-32.42 -62.16,-48.49 c -0.74,-0.06 -1.38,0.16 -1.94,0.66 c -20.3,16.03 -40.68,31.94 -61.15,47.75 c 7.78,-26.32 15.6,-52.68 23.46,-79.08 c -0.19,-0.69 -0.59,-1.23 -1.21,-1.62 c -19.8,-15.58 -39.64,-31.11 -59.52,-46.59 c -0.38,-0.36 -0.67,-0.78 -0.87,-1.27 Z M 235.1,257.12 c 0.01,0.35 0.14,0.65 0.41,0.89 c 15.71,11.94 31.3,24.04 46.76,36.31 c 0.77,0.84 4.28,3.05 4.35,4.05 c -6.05,20.77 -12.23,41.51 -18.55,62.21 c -0.01,0.75 -0.64,1.72 0.44,1.97 c 16.64,-12.97 33.31,-25.89 50.03,-38.77 c 0.63,-0.13 1.21,-0.01 1.73,0.38 c 16.1,12.55 32.16,25.16 48.17,37.83 c 0.46,0.47 0.96,0.55 1.51,0.25 c 0.16,-0.86 0.08,-1.71 -0.26,-2.54 c -6.23,-20.4 -12.33,-40.85 -18.29,-61.33 c 0.07,-1 3.57,-3.2 4.33,-4.04 c 15.68,-12.35 31.38,-24.63 47.1,-36.84 c -0.32,-0.41 -0.74,-0.6 -1.27,-0.58 c -17.35,0.07 -34.7,0.09 -52.05,0.05 c -3.56,0.07 -7.1,-0.06 -10.62,-0.39 c -6.52,-21.14 -13.06,-42.27 -19.61,-63.38 c -0.75,0.08 -1.17,0.52 -1.26,1.32 c -6.12,20.75 -12.42,41.44 -18.91,62.07 c -0.5,0.26 -1.04,0.37 -1.61,0.32 c -20.8,0.03 -41.6,0.1 -62.4,0.22 Z"/></g>
</svg>
