<?xml version="1.0" encoding="UTF-8"?>
<!DOCTYPE svg PUBLIC "-//W3C//DTD SVG 1.1//EN" "http://www.w3.org/Graphics/SVG/1.1/DTD/svg11.dtd">
<svg xmlns="http://www.w3.org/2000/svg" version="1.1" width="683px" height="683px" style="shape-rendering:geometricPrecision; text-rendering:geometricPrecision; image-rendering:optimizeQuality; fill-rule:evenodd; clip-rule:evenodd" xmlns:xlink="http://www.w3.org/1999/xlink">
<g><path fill="#323232" stroke="#323232" stroke-width="0.5" d="M 575.05,97.27 c -1.68,-1.61 -3.36,-3.21 -5.03,-4.81 c -0.34,-0.19 -0.69,-0.22 -1.05,-0.08 c -0.05,-3.54 5.52,-6.61 7.5,-9.32 c 3.4,-7.16 29.57,-30.46 36.54,-38.27 c 0.3,-0.25 0.63,-0.33 1,-0.24 c 0.49,1.42 1.07,2.78 1.74,4.07 c 0.94,0 1.86,-0.12 2.77,-0.37 c 2.12,-0.42 5.38,4.44 6.99,5.67 c 0.85,1.28 -0.29,2.91 -0.11,4.33 c 1.24,0.73 2.55,1.35 3.94,1.86 c 0.28,0.55 0.16,1.01 -0.36,1.41 c -11.66,11.63 -23.3,23.28 -34.93,34.94 c -4.69,1.56 -5.92,4.46 -9.51,7.51 c -1.02,0.62 -1.97,0.53 -2.86,-0.27 c -2.31,-2.04 -4.52,-4.19 -6.63,-6.43 Z M 589.17,75.84 c 8.93,1.68 13.82,-9.36 20.06,-13.94 c 1.36,-1.66 -1.19,-4.63 -3.23,-3.31 c -5.76,5.62 -11.37,11.37 -16.83,17.25 Z M 562.88,103.29 c 2.59,2.24 5.18,4.48 7.77,6.71 c 5.67,4.92 15.71,12.02 19.95,17.71 c 1.31,1.33 -0.97,2.85 -1.53,3.9 c -0.45,2.07 2.61,2.56 1.15,4.28 c -2.46,2.48 -4.92,4.94 -7.39,7.4 c -0.93,0.79 -2.26,-1.69 -3.34,-1.71 c -1.5,0.36 -2.28,1.29 -2.34,2.81 c 0.87,1.35 2.55,2.46 0.65,3.96 c -1.08,0.85 -2.44,3.33 -4.08,2.23 c -1.05,-0.99 -1.98,-2.09 -3.32,-0.65 c -1.28,0.81 -1.65,1.9 -1.1,3.25 c 2.76,1.93 0,3.54 -1.38,5.07 c -3.14,2.46 -3.35,-2.55 -5.52,-0.33 c -2.81,2.53 -2.07,2.43 0.03,4.92 c 0.67,1.05 -2.93,3.45 -3.47,4.34 c -1.79,0.79 -2.78,-3 -4.55,-1.25 c -4.33,3.22 1.11,4.1 -0.09,5.95 c -1.21,1.25 -2.49,2.39 -3.83,3.44 c -0.95,-0.31 -1.77,-0.84 -2.45,-1.6 c -0.59,-0.24 -1.13,-0.17 -1.62,0.22 c -4.5,3.45 0.76,3.74 -0.23,6.02 c -1.22,1.29 -2.52,2.49 -3.88,3.58 c -0.94,-0.62 -1.88,-1.24 -2.83,-1.85 c -1.25,-0.02 -2.79,1.69 -3.11,2.83 c 0.64,0.92 1.17,1.91 1.58,2.97 c -0.3,1.15 -3.29,5.05 -4.86,3.76 c -0.84,-1.24 -1.9,-1.51 -3.18,-0.82 c -4.56,3.47 1.73,3.93 -0.67,6.48 c -3.93,5.53 -8.13,2.85 -11.3,5.52 c -4.66,5.59 -12.64,8.72 -7.9,16.98 c 14.12,32.54 28.21,65.09 42.25,97.67 c 1.38,3.17 -5.9,5.54 -4.93,8.24 c 10.4,21.25 20.85,42.47 31.35,63.67 c 10.01,6.74 9.86,18.22 18.87,25.99 c 3.12,5.66 0.25,11.22 -5.09,14.01 c -9.12,2.81 -29.4,19.05 -38.13,12.19 c -3.96,-4.2 -11.25,-9.33 -13.05,-14.85 c -0.24,-2 -0.66,-3.94 -1.26,-5.85 c -9.51,-19.52 -19.04,-39.03 -28.61,-58.52 c -0.64,-0.8 -1.33,-0.82 -2.06,-0.07 c -20.74,20.85 -41.56,41.62 -62.47,62.3 c -36.77,14.99 -73.73,29.64 -110.6,44.36 c -0.47,0.17 -0.92,0.14 -1.36,-0.09 c -21.29,-28.07 -33.98,-56.09 -41.36,-90.49 c -2.59,-11.2 -15.2,-8.7 -22.03,-2.89 c -0.51,0.26 -1.06,0.33 -1.62,0.21 c -10.44,-10.15 -20.74,-20.44 -30.88,-30.88 c -0.17,-0.61 -0.07,-1.18 0.29,-1.71 c 4.18,-4.21 6.82,-5.61 6.82,-12.18 c 0.58,-1.82 2.94,-3.92 4.51,-4.97 c 1.99,-0.41 1.69,2.77 4.56,1.27 c 4.52,-3.2 -1.99,-4.12 0.57,-6.7 c 2.45,-2.45 2.75,-4.02 5.82,-1.22 c 1.68,0.72 4.7,-2.35 3.06,-4.06 c -8.54,-8.46 -17.08,-16.92 -25.62,-25.39 c -0.51,-0.44 -0.72,-0.98 -0.63,-1.63 c 3.46,-3.19 5.56,-6.32 10.89,-4.51 c 8.45,2.33 12.68,5.98 18.75,11.94 c 0.87,0.76 1.73,0.77 2.59,0.02 c 5.6,-4.42 11.25,-8.78 16.95,-13.07 c 4.36,-1.8 5.19,3.16 7.89,3.68 c 1.28,-0.34 2.1,-1.14 2.47,-2.42 c -0.44,-1.1 -1.02,-2.11 -1.74,-3.05 c 0.04,-1.18 3,-4.1 4.17,-4.17 c 1.5,0.23 1.44,1.73 3.06,1.73 c 5.62,-2.48 -0.06,-4.1 0.92,-6.29 c 0.95,-0.91 3.11,-4.2 4.68,-3.2 c 0.6,0.83 1.4,1.34 2.4,1.52 c 2.87,-1.17 3.22,-2.82 1.03,-4.95 c -1.02,-1.52 1.86,-3.23 2.62,-4.24 c 2.58,-2.55 3.22,4.31 7.15,-1.03 c 1.61,-1.89 -2.9,-2.95 -1.61,-4.61 c 1.21,-1.25 2.5,-2.4 3.85,-3.44 c 1.08,0.53 2.09,1.17 3.03,1.93 c 1.08,0.26 3.34,-2.07 3.16,-3.12 c -0.56,-0.89 -1.17,-1.73 -1.84,-2.54 c -0.52,-1.28 2.87,-3.72 3.82,-4.39 c 1.58,-0.4 1.62,1.95 3.78,1.63 c 2.81,-1.46 2.83,-2.85 0.71,-4.87 c -0.53,-1.98 2.07,-3.84 3.51,-4.82 c 2.1,-0.37 2.17,3.5 5.12,0.75 c 3.84,-2.8 -1.78,-3.93 -0.01,-6.19 c 0.77,-0.77 1.55,-1.54 2.32,-2.31 c 2.83,-2.9 3.3,4.17 7.19,-1.01 c 2.04,-1.99 -2.27,-2.81 -0.97,-5.11 c 0.82,-0.9 2.73,-3.35 4.01,-3.21 c 1.29,0.33 1.57,1.98 3.12,1.68 c 2.77,-1.21 3.08,-2.83 0.95,-4.86 c -1,-1.71 2.12,-3.91 3.27,-4.85 c 2.14,-0.92 2.06,3.32 5.12,0.86 c 3.47,-3.12 -1.26,-3.45 -0.37,-5.62 c 0.89,-1.1 3.12,-4.13 4.73,-3.33 c 1.31,1.37 2.67,2.36 4.13,0.45 c 2.69,-2.96 -1.2,-3.02 -0.73,-5.12 c 1.46,-2.04 4.01,-5.51 6.32,-2.15 c 1.35,1.02 4.05,-1.85 3.69,-2.98 c -0.38,-1.24 -3.02,-2.66 -1.38,-3.9 c 1.11,-1.12 2.27,-2.15 3.49,-3.1 c 1.02,0.54 1.98,1.18 2.87,1.94 c 0.45,0.16 0.86,0.1 1.24,-0.19 c 5.18,-3.9 -1.87,-4.39 0.99,-7.2 c 1.04,-0.73 2.67,-3.53 4.18,-2.44 c 2.34,3.73 7.42,-0.95 3.53,-3.6 c -1.04,-1.46 3.21,-5.54 4.62,-4.65 c 2.07,2.55 3.42,1.43 5.19,-0.62 c 1.63,-1.99 -3.42,-3.47 -1.14,-5.09 c 1.11,-1.14 2.27,-2.19 3.5,-3.16 c 1.6,0.48 3.08,3.45 4.63,1.26 c 0.75,-0.52 1.18,-1.21 1.29,-2.08 c -0.85,-0.92 -1.56,-1.93 -2.1,-3.04 c 1.12,-1.33 2.31,-2.61 3.57,-3.83 c 3.28,-0.17 2.58,4.29 6.25,-0.06 c 1.93,-2 -3.09,-3.38 -1.1,-5.14 c 1.19,-0.7 3.01,-4.11 4.64,-2.78 c 1.89,2.68 4.34,1.07 5.06,-1.41 c -0.55,-1.03 -1.13,-2.04 -1.74,-3.02 c 0.13,-1.29 2.53,-3.2 3.52,-4.01 c 2.19,-0.89 2.51,3.82 5.63,0.38 c 2.47,-3.07 -1.76,-3 -0.86,-5.13 c 0.93,-1.15 3.14,-4.25 4.85,-3.29 c 1.3,1.36 2.54,2.26 3.99,0.41 c 2.67,-3 -1.39,-3.01 -0.77,-5.12 c 1.01,-1.39 2.87,-4.04 4.82,-3.43 c 2.39,2.43 2.91,1.71 4.95,-0.46 c 1.31,-1.79 -2.72,-3.25 -1.65,-4.63 c 1.26,-1.21 2.55,-2.36 3.87,-3.46 c 1.09,0.49 2.1,1.12 3.03,1.9 c 1.11,0.37 3.33,-2.08 3.26,-3.07 c -0.55,-1.72 -2.93,-2.46 -1.02,-4.44 c 1.04,-0.73 2.64,-3.49 4.15,-2.38 c 2.41,3.43 4.46,-0.22 6.35,-1.92 c 0.4,-0.84 0.24,-1.58 -0.48,-2.2 c -8.67,-8.62 -17.37,-17.19 -26.11,-25.73 c -0.32,-0.54 -0.26,-1.05 0.17,-1.53 c 3.09,-2.54 5.07,-5.76 9.65,-4.36 c 9.09,2.24 13.32,5.93 19.81,12.19 c 0.76,0.71 1.54,0.74 2.34,0.07 c 5.8,-4.6 11.69,-9.08 17.68,-13.41 c 3.6,-1.47 5.57,4.61 7.87,3.85 c 2.06,-1.83 4.01,-3.77 5.86,-5.82 c 1.26,-0.89 3.82,2.14 4.82,2.74 c 13.69,11.88 27.35,23.78 40.99,35.7 Z M 598.54,84.16 c 0.7,0.4 1.35,0.33 1.95,-0.22 c 1.82,-2.54 16.33,-15.02 15.73,-16.99 c -0.94,-2.04 -2.33,-2.44 -4.15,-1.2 c -4.16,5.72 -14.25,10.5 -13.53,18.41 Z M 256.97,344 c 4.8,5.24 9.75,10.33 14.86,15.26 c 1.08,0.31 10.45,-2.32 12.08,-2.97 c 26.94,-26.63 53.77,-53.37 80.5,-80.21 c 0.69,-0.95 1.57,-1.17 2.61,-0.65 c 21.08,10.24 39.91,67.11 50.41,88.59 c 2.69,16.99 4.94,34.03 4.39,51.34 c -0.49,1.3 -0.72,2.63 -0.71,4 c 0.65,1.07 2.23,0.66 3.22,0.49 c 9.48,-4.4 15.46,-4.74 22.52,-13.2 c 0.51,-0.49 0.68,-1.08 0.51,-1.76 c -18.77,-41.04 -37.68,-82.01 -56.73,-122.91 c -4.16,-10.65 -3.85,-21.11 4.07,-29.87 c 11.45,-10.78 22.67,-21.79 33.66,-33.05 c 0.2,-0.6 0.09,-1.14 -0.36,-1.6 c -6.4,-6.25 -12.66,-12.64 -18.77,-19.16 c -0.48,-1.42 1.06,-3.68 1.95,-4.74 c 10.24,-10.42 20.75,-21.47 31.56,-31.21 c 1.11,-0.35 2.17,-0.23 3.17,0.36 c 6.09,5.86 12.15,11.74 18.19,17.64 c 0.93,0.84 1.87,0.84 2.8,0 c 9.34,-9.15 19.35,-20.47 29.55,-28.31 c 0.44,-4.45 0.69,-8.93 0.74,-13.42 c 0.21,-2.72 34.41,-35.2 38.81,-40.08 c 0.66,-0.69 0.66,-1.38 -0.02,-2.05 c -5.42,-4.52 -10.72,-9.16 -15.91,-13.94 c -0.71,-0.48 -1.43,-0.48 -2.14,0.01 c -82.31,82.31 -164.62,164.62 -246.93,246.94 c -4.8,4.71 -9.48,9.55 -14.03,14.5 Z M 567.39,94.76 c 2.32,-0.36 4.71,2.87 6.24,4.25 c 2.25,1.99 4.3,4.16 6.12,6.51 c -0.63,1.27 -1.43,2.43 -2.4,3.5 c -2.31,2.15 -3.2,1.16 -5.36,-0.36 c -2.22,-2 -4.52,-3.91 -6.9,-5.72 c -0.73,-0.77 -1.54,-1.46 -2.42,-2.07 c -1.51,-1.33 3.2,-5.82 4.72,-6.11 Z M 398.99,266 c -0.61,8.18 1.52,11.75 4.6,18.96 c 17.24,37.12 34.41,74.27 51.53,111.44 c 0.6,0.56 1.24,0.59 1.91,0.08 c 17.18,-17.1 34.27,-34.28 51.28,-51.54 c 4.02,-17.69 6.61,-19.73 23.62,-23.63 c 4.17,-3.9 6.53,-5.28 3.46,-11.29 c -12.97,-30 -25.9,-60.02 -38.81,-90.04 c -1.41,-5.08 -0.02,-13.22 3.61,-17.42 c 23.84,-24.1 47.78,-48.11 71.82,-72.02 c 0.96,-0.71 1.1,-1.53 0.42,-2.46 c -8.82,-7.46 -17.61,-14.98 -26.35,-22.54 c -0.72,-0.47 -1.44,-0.46 -2.15,0.02 c -11.83,11.75 -23.58,23.58 -35.24,35.5 c -1.58,3.13 0.42,11.78 -1.85,14.41 c -26.55,26.74 -53.16,53.41 -79.85,80.02 c -6.99,7.88 -25.23,20.72 -28,30.51 Z M 467.99,240.99 c 6.24,-14.57 22.53,-14.32 28.39,1.05 c 7.61,18.42 17.17,37.44 24.07,55.95 c 3.45,12.3 -18.6,24.26 -26.82,6.98 c -8.39,-19.26 -17.12,-38.41 -25.33,-57.75 c -0.19,-2.07 -0.3,-4.14 -0.31,-6.23 Z M 476.99,244 c 7.47,19.31 17.05,39.16 25.31,58.31 c 3.29,5.93 10.8,-0.19 9.3,-3.35 c -8.32,-19.27 -16.81,-38.47 -25.47,-57.6 c -2.74,-4.39 -8.67,-0.99 -9.14,2.64 Z M 334.22,324 c 2.61,6.65 5.41,13.22 8.39,19.74 c 0.62,1.15 1.59,1.61 2.91,1.37 c 4.3,-0.32 18.99,-8.24 23.79,-10.44 c 4.72,-4.55 9.38,-9.18 13.96,-13.88 c 0.3,-0.36 0.41,-0.77 0.35,-1.22 c -3.97,-8.68 -8.54,-17.03 -13.71,-25.05 c -1.2,-1.27 -2.16,-4.7 -4.12,-2.25 c -10.58,10.53 -21.1,21.1 -31.57,31.73 Z M 337.21,323.78 c -0.27,-1.37 10.75,-10.96 12.02,-13.03 c 0.31,-0.28 0.69,-0.41 1.11,-0.39 c 0.52,1.15 0.91,2.37 1.16,3.65 c 1.91,4.23 14.25,9.55 18.47,11.65 c 0.88,0.64 0.8,1.19 -0.24,1.64 c -8.56,3.96 -10.26,-0.38 -18.36,-2.1 c -5.86,0.18 -8.32,1.02 -14.16,-1.42 Z M 433,335 c -0.02,-1.04 0.22,-2.01 0.7,-2.92 c 3.45,-3.84 4.14,-4.46 9.57,-3.73 c 6.13,4.64 15.3,31.17 19.57,39.31 c 0.06,0.48 -0.04,0.92 -0.31,1.33 c -1.94,4.63 -5.32,7.12 -10.45,5.31 c -6.35,-6.25 -16.04,-30.11 -19.08,-39.3 Z M 347.94,354.98 c 0.58,2.1 1.36,4.13 2.33,6.09 c 10.22,23.14 20.48,46.25 30.78,69.34 c 0.61,0.47 1.26,0.54 1.97,0.2 c 8.18,-3.13 16.34,-6.33 24.47,-9.59 c 4.46,-11.48 -0.26,-39.83 -2.36,-52.53 c -2.28,-6.26 -4.77,-12.44 -7.46,-18.54 c -3,-6.99 -6.16,-13.89 -9.48,-20.72 c -0.75,-0.25 -1.39,-0.07 -1.93,0.53 c -4.11,4.24 -8.31,8.38 -12.62,12.42 c -3.42,2.28 -25.07,10.14 -25.7,12.8 Z M 296.99,360.99 c 3.12,2.84 6.09,5.55 7.65,9.74 c 7.55,31.03 15.98,55.21 34.32,81.75 c 1.31,1.19 3.87,-0.48 5.29,-0.79 c 8.78,-3.47 17.52,-7.02 26.23,-10.65 c 0.47,-0.73 0.59,-1.51 0.35,-2.35 c -15.51,-34.62 -30.84,-69.31 -45.98,-104.09 c -0.88,-0.7 -1.68,-0.57 -2.39,0.39 c -8.64,8.53 -17.13,17.19 -25.47,26 Z M 520.46,350.9 c 0.73,2.22 1.64,4.36 2.73,6.43 c 9.25,18.23 18.23,36.59 26.92,55.09 c 0.32,0.45 0.74,0.59 1.27,0.43 c 5.27,-4.98 10.46,-10.07 15.57,-15.25 c 0.61,-0.5 0.91,-1.13 0.9,-1.91 c -10.13,-20.03 -19.97,-40.19 -29.56,-60.47 c -0.15,-0.5 -0.46,-0.86 -0.92,-1.09 c -15.47,-1.17 -15.87,3.96 -16.91,16.77 Z M 52.87,540.95 c 0.26,-0.57 0.61,-1.09 1.05,-1.54 c 48.64,-48.67 97.29,-97.34 145.93,-146 c 6.12,-9.95 12.14,-19.96 18.07,-30.03 c 5.27,-5.38 10.59,-10.71 15.96,-16 c 0.74,-0.24 1.41,-0.09 1.99,0.45 c 9.74,9.79 19.5,19.56 29.28,29.31 c 0.54,0.64 0.74,1.37 0.59,2.19 c -1.95,5.98 -3.99,11.92 -6.14,17.82 c -7.89,8.03 -15.83,16.01 -23.83,23.94 c -0.85,0.96 -1.05,2.05 -0.59,3.27 c 3.59,9.72 7.15,19.45 10.67,29.19 c 0.24,0.86 0.15,1.69 -0.25,2.48 c -24.8,33.53 -49.58,67.08 -74.36,100.63 c -0.41,0.81 -0.41,1.62 -0.02,2.43 c 6.85,8.51 13.66,17.04 20.42,25.62 c 2.36,6.15 4.44,12.39 6.23,18.72 c -0.09,0.5 -0.32,0.91 -0.7,1.25 c -11.34,11.31 -22.69,22.62 -34.04,33.93 c -0.74,0.2 -1.42,0.07 -2.05,-0.4 c -22.38,-15.99 -44.5,-32.54 -68.07,-46.74 c -22,-8.48 -39.39,-25.86 -40.14,-50.52 Z M 218.97,388.01 c 4.51,4.97 9.2,9.76 14.07,14.37 c 0.68,0.56 1.43,0.7 2.27,0.43 c 5.41,-4.93 16.98,-14 15.34,-22.09 c -4.5,-5.04 -9.19,-9.93 -14.06,-14.65 c -0.51,-0.64 -1.17,-0.93 -1.98,-0.88 c -2.6,2.33 -5.06,4.83 -7.35,7.49 c -2.83,4.6 -6.57,10.26 -8.29,15.33 Z M 67.49,544.96 c 9.66,9.68 19.31,19.36 28.97,29.04 c 0.69,0.65 1.39,0.65 2.08,0 c 43.25,-43.26 86.49,-86.54 129.72,-129.83 c 0.08,-1.18 -0.11,-2.32 -0.6,-3.43 c -2.59,-7.09 -5.11,-14.19 -7.56,-21.32 c -0.06,-2.14 5.25,-4.31 3.34,-6.49 c -3.8,-3.78 -7.59,-7.57 -11.37,-11.37 c -0.71,-0.49 -1.43,-0.49 -2.14,0 c -47.28,47.25 -94.53,94.54 -141.75,141.86 c -0.4,0.43 -0.63,0.95 -0.69,1.54 Z M 554.48,423.03 c 0,0.63 0.22,1.17 0.66,1.62 c 1.48,1 4.44,5.42 6.17,5.21 c 6.88,-3.07 13.7,-6.25 20.47,-9.57 c 0.81,-0.31 1.22,-0.9 1.23,-1.77 c -2.47,-4.61 -4.86,-9.29 -7.16,-14.02 c -0.61,-1.1 -1.41,-1.28 -2.41,-0.52 c -6.32,6.36 -12.64,12.71 -18.96,19.05 Z M 213.97,470.99 c -0.06,1.75 1.13,3.67 3.06,2.51 c 3.76,-5.17 7.55,-10.32 11.37,-15.45 c 0.26,-0.33 0.24,-0.62 -0.08,-0.88 c -0.74,-0.03 -1.36,0.25 -1.85,0.83 c -4.29,4.21 -8.46,8.54 -12.5,12.99 Z M 109.99,574.99 c -0.02,1 0.34,1.83 1.08,2.49 c 16.94,14.04 33.82,28.15 50.65,42.32 c 0.81,0.27 1.54,0.13 2.18,-0.44 c 6.39,-6.09 13.15,-12.31 18.75,-19.09 c 1.96,-7.7 -22.38,-34.36 -28,-41.2 c -0.54,-1.25 3.07,-5.09 3.6,-6.38 c 4.57,-5.98 8.98,-12.04 13.23,-18.2 c -0.07,-0.63 -0.4,-1.07 -0.99,-1.31 c -3.4,-1.03 -11.91,-7.07 -14.93,-4.01 c -15.18,14.96 -31.03,30.34 -45.57,45.82 Z M 130.99,575.01 c -0.52,-7.86 2.55,-13.38 11.26,-12.67 c 18.68,7.82 -1.41,30.31 -11.26,12.67 Z"/></g>
<g><path fill="#9c8a6b" stroke="#9c8a6b" stroke-width="0.5" d="M 256.97,344 c 4.55,-4.95 9.23,-9.79 14.03,-14.5 c 82.31,-82.32 164.62,-164.63 246.93,-246.94 c 0.71,-0.49 1.43,-0.49 2.14,-0.01 c 5.19,4.78 10.49,9.42 15.91,13.94 c 0.68,0.67 0.68,1.36 0.02,2.05 c -4.4,4.88 -38.6,37.36 -38.81,40.08 c -0.05,4.49 -0.3,8.97 -0.74,13.42 c -10.2,7.84 -20.21,19.16 -29.55,28.31 c -0.93,0.84 -1.87,0.84 -2.8,0 c -6.04,-5.9 -12.1,-11.78 -18.19,-17.64 c -1,-0.59 -2.06,-0.71 -3.17,-0.36 c -10.81,9.74 -21.32,20.79 -31.56,31.21 c -0.89,1.06 -2.43,3.32 -1.95,4.74 c 6.11,6.52 12.37,12.91 18.77,19.16 c 0.45,0.46 0.56,1 0.36,1.6 c -10.99,11.26 -22.21,22.27 -33.66,33.05 c -7.92,8.76 -8.23,19.22 -4.07,29.87 c 19.05,40.9 37.96,81.87 56.73,122.91 c 0.17,0.68 0,1.27 -0.51,1.76 c -7.06,8.46 -13.04,8.8 -22.52,13.2 c -0.99,0.17 -2.57,0.58 -3.22,-0.49 c -0.01,-1.37 0.22,-2.7 0.71,-4 c 0.55,-17.31 -1.7,-34.35 -4.39,-51.34 c -10.5,-21.48 -29.33,-78.35 -50.41,-88.59 c -1.04,-0.52 -1.92,-0.3 -2.61,0.65 c -26.73,26.84 -53.56,53.58 -80.5,80.21 c -1.63,0.65 -11,3.28 -12.08,2.97 c -5.11,-4.93 -10.06,-10.02 -14.86,-15.26 Z M 398.99,266 c 2.77,-9.79 21.01,-22.63 28,-30.51 c 26.69,-26.61 53.3,-53.28 79.85,-80.02 c 2.27,-2.63 0.27,-11.28 1.85,-14.41 c 11.66,-11.92 23.41,-23.75 35.24,-35.5 c 0.71,-0.48 1.43,-0.49 2.15,-0.02 c 8.74,7.56 17.53,15.08 26.35,22.54 c 0.68,0.93 0.54,1.75 -0.42,2.46 c -24.04,23.91 -47.98,47.92 -71.82,72.02 c -3.63,4.2 -5.02,12.34 -3.61,17.42 c 12.91,30.02 25.84,60.04 38.81,90.04 c 3.07,6.01 0.71,7.39 -3.46,11.29 c -17.01,3.9 -19.6,5.94 -23.62,23.63 c -17.01,17.26 -34.1,34.44 -51.28,51.54 c -0.67,0.51 -1.31,0.48 -1.91,-0.08 c -17.12,-37.17 -34.29,-74.32 -51.53,-111.44 c -3.08,-7.21 -5.21,-10.78 -4.6,-18.96 Z M 467.99,240.99 c 0.01,2.09 0.12,4.16 0.31,6.23 c 8.21,19.34 16.94,38.49 25.33,57.75 c 8.22,17.28 30.27,5.32 26.82,-6.98 c -6.9,-18.51 -16.46,-37.53 -24.07,-55.95 c -5.86,-15.37 -22.15,-15.62 -28.39,-1.05 Z M 476.99,244 c 0.47,-3.63 6.4,-7.03 9.14,-2.64 c 8.66,19.13 17.15,38.33 25.47,57.6 c 1.5,3.16 -6.01,9.28 -9.3,3.35 c -8.26,-19.15 -17.84,-39 -25.31,-58.31 Z M 433,335 c 3.04,9.19 12.73,33.05 19.08,39.3 c 5.13,1.81 8.51,-0.68 10.45,-5.31 c 0.27,-0.41 0.37,-0.85 0.31,-1.33 c -4.27,-8.14 -13.44,-34.67 -19.57,-39.31 c -5.43,-0.73 -6.12,-0.11 -9.57,3.73 c -0.48,0.91 -0.72,1.88 -0.7,2.92 Z M 296.99,360.99 c 8.34,-8.81 16.83,-17.47 25.47,-26 c 0.71,-0.96 1.51,-1.09 2.39,-0.39 c 15.14,34.78 30.47,69.47 45.98,104.09 c 0.24,0.84 0.12,1.62 -0.35,2.35 c -8.71,3.63 -17.45,7.18 -26.23,10.65 c -1.42,0.31 -3.98,1.98 -5.29,0.79 c -18.34,-26.54 -26.77,-50.72 -34.32,-81.75 c -1.56,-4.19 -4.53,-6.9 -7.65,-9.74 Z M 218.97,388.01 c 1.72,-5.07 5.46,-10.73 8.29,-15.33 c 2.29,-2.66 4.75,-5.16 7.35,-7.49 c 0.81,-0.05 1.47,0.24 1.98,0.88 c 4.87,4.72 9.56,9.61 14.06,14.65 c 1.64,8.09 -9.93,17.16 -15.34,22.09 c -0.84,0.27 -1.59,0.13 -2.27,-0.43 c -4.87,-4.61 -9.56,-9.4 -14.07,-14.37 Z M 67.49,544.96 c 0.06,-0.59 0.29,-1.11 0.69,-1.54 c 47.22,-47.32 94.47,-94.61 141.75,-141.86 c 0.71,-0.49 1.43,-0.49 2.14,0 c 3.78,3.8 7.57,7.59 11.37,11.37 c 1.91,2.18 -3.4,4.35 -3.34,6.49 c 2.45,7.13 4.97,14.23 7.56,21.32 c 0.49,1.11 0.68,2.25 0.6,3.43 c -43.23,43.29 -86.47,86.57 -129.72,129.83 c -0.69,0.65 -1.39,0.65 -2.08,0 c -9.66,-9.68 -19.31,-19.36 -28.97,-29.04 Z M 213.97,470.99 c 4.04,-4.45 8.21,-8.78 12.5,-12.99 c 0.49,-0.58 1.11,-0.86 1.85,-0.83 c 0.32,0.26 0.34,0.55 0.08,0.88 c -3.82,5.13 -7.61,10.28 -11.37,15.45 c -1.93,1.16 -3.12,-0.76 -3.06,-2.51 Z M 109.99,574.99 c 14.54,-15.48 30.39,-30.86 45.57,-45.82 c 3.02,-3.06 11.53,2.98 14.93,4.01 c 0.59,0.24 0.92,0.68 0.99,1.31 c -4.25,6.16 -8.66,12.22 -13.23,18.2 c -0.53,1.29 -4.14,5.13 -3.6,6.38 c 5.62,6.84 29.96,33.5 28,41.2 c -5.6,6.78 -12.36,13 -18.75,19.09 c -0.64,0.57 -1.37,0.71 -2.18,0.44 c -16.83,-14.17 -33.71,-28.28 -50.65,-42.32 c -0.74,-0.66 -1.1,-1.49 -1.08,-2.49 Z M 130.99,575.01 c 9.85,17.64 29.94,-4.85 11.26,-12.67 c -8.71,-0.71 -11.78,4.81 -11.26,12.67 Z"/></g>
<g><path fill="#0f0f0f" fill-opacity="0.059" stroke="#0f0f0f" stroke-width="0.5" stroke-opacity="0.059" d="M 568.97,92.38 c 0.36,-0.14 0.71,-0.11 1.05,0.08 c 1.67,1.6 3.35,3.2 5.03,4.81 c -0.41,0.63 -0.89,1.21 -1.42,1.74 c -1.53,-1.38 -3.92,-4.61 -6.24,-4.25 c -0.23,-1.3 0.3,-2.1 1.58,-2.38 Z M 562.88,103.29 c 0.72,-0.23 1.46,-0.35 2.21,-0.35 c 2.38,1.81 4.68,3.72 6.9,5.72 c -0.43,0.46 -0.88,0.91 -1.34,1.34 c -2.59,-2.23 -5.18,-4.47 -7.77,-6.71 Z"/></g>
<g><path fill="#444444" stroke="#444444" stroke-width="0.5" d="M 520.46,350.9 c 1.04,-12.81 1.44,-17.94 16.91,-16.77 c 0.46,0.23 0.77,0.59 0.92,1.09 c 9.59,20.28 19.43,40.44 29.56,60.47 c 0.01,0.78 -0.29,1.41 -0.9,1.91 c -5.11,5.18 -10.3,10.27 -15.57,15.25 c -0.53,0.16 -0.95,0.02 -1.27,-0.43 c -8.69,-18.5 -17.67,-36.86 -26.92,-55.09 c -1.09,-2.07 -2,-4.21 -2.73,-6.43 Z M 554.48,423.03 c 6.32,-6.34 12.64,-12.69 18.96,-19.05 c 1,-0.76 1.8,-0.58 2.41,0.52 c 2.3,4.73 4.69,9.41 7.16,14.02 c -0.01,0.87 -0.42,1.46 -1.23,1.77 c -6.77,3.32 -13.59,6.5 -20.47,9.57 c -1.73,0.21 -4.69,-4.21 -6.17,-5.21 c -0.44,-0.45 -0.66,-0.99 -0.66,-1.62 Z"/></g>
</svg>
